<?xml version="1.0" encoding="UTF-8" standalone="no"?>
<!-- Created with Inkscape (http://www.inkscape.org/) -->
<svg xmlns:dc="http://purl.org/dc/elements/1.1/" xmlns:cc="http://creativecommons.org/ns#" xmlns:rdf="http://www.w3.org/1999/02/22-rdf-syntax-ns#" xmlns:svg="http://www.w3.org/2000/svg" xmlns="http://www.w3.org/2000/svg" xmlns:sodipodi="http://sodipodi.sourceforge.net/DTD/sodipodi-0.dtd" xmlns:inkscape="http://www.inkscape.org/namespaces/inkscape" width="205" height="284" id="svg2" sodipodi:version="0.32" inkscape:version="0.46" version="1.0" sodipodi:docname="brain.svg" inkscape:output_extension="org.inkscape.output.svg.inkscape">
  <defs id="defs4">
    <inkscape:perspective sodipodi:type="inkscape:persp3d" inkscape:vp_x="0 : 526.18109 : 1" inkscape:vp_y="0 : 1000 : 0" inkscape:vp_z="744.09448 : 526.18109 : 1" inkscape:persp3d-origin="372.04724 : 350.78739 : 1" id="perspective10"/>
    <inkscape:perspective id="perspective2390" inkscape:persp3d-origin="372.04724 : 350.78739 : 1" inkscape:vp_z="744.09448 : 526.18109 : 1" inkscape:vp_y="0 : 1000 : 0" inkscape:vp_x="0 : 526.18109 : 1" sodipodi:type="inkscape:persp3d"/>
  </defs>
  <sodipodi:namedview id="base" pagecolor="#ffffff" bordercolor="#666666" borderopacity="1.0" inkscape:pageopacity="0.0" inkscape:pageshadow="2" inkscape:zoom="0.98994949" inkscape:cx="327.70054" inkscape:cy="218.15531" inkscape:document-units="px" inkscape:current-layer="layer1" showgrid="false" inkscape:window-width="1280" inkscape:window-height="975" inkscape:window-x="-4" inkscape:window-y="-4"/>
  <metadata id="metadata7">
    <rdf:RDF>
      <cc:Work rdf:about="">
        <dc:format>image/svg+xml</dc:format>
        <dc:type rdf:resource="http://purl.org/dc/dcmitype/StillImage"/>
      </cc:Work>
    </rdf:RDF>
  </metadata>
  <g inkscape:label="Camada 1" inkscape:groupmode="layer" id="layer1">
    <g id="g3170" transform="translate(-252.23775,-104.04571)">
      <path sodipodi:nodetypes="csssssssssccsssssscscssssssssssscc" id="path2396" d="M 256.57875,384.65135 C 265.0289,354.61663 283.29957,328.48518 304.05592,287.17163 C 310.83794,273.67266 315.08272,250.90519 314.15744,235.65385 C 314.15744,235.65385 305.28825,228.00177 302.54069,224.28963 C 297.43816,217.39576 291.46396,207.80515 288.90363,199.79343 C 285.9799,190.64456 284.58617,177.54643 285.36809,167.97363 C 286.09839,159.03279 288.62424,146.74673 293.44931,139.18428 C 298.70909,130.94051 309.55198,122.53951 318.19805,117.97108 C 326.94011,113.35193 340.15936,110.13997 350.01786,109.38478 C 359.59449,108.65118 372.53934,110.51381 381.83766,112.92031 C 392.48959,115.67714 406.69057,121.09212 415.17269,128.0726 C 435.63544,145.95289 435.42037,169.26566 436.89098,194.23759 C 438.35311,200.16809 443.3827,206.98799 446.9925,211.91526 C 448.57677,214.07774 451.85699,216.08234 453.05342,218.48126 C 453.8095,219.99725 454.71186,222.47197 454.06357,224.03709 C 453.14674,226.25051 449.58628,227.40927 447.49758,228.58278 C 446.19653,229.31375 443.68228,229.30171 442.95189,230.60309 C 441.23177,233.66793 445.80266,238.63897 443.70951,241.46223 C 442.61166,242.943 438.4062,243.22999 438.4062,243.22999 C 438.4062,243.22999 443.60598,249.82244 441.43666,249.79598 C 440.22649,249.78122 436.55496,255.91466 437.39605,257.87721 C 437.39605,257.87721 439.88286,263.77879 439.92143,266.4635 C 439.96419,269.44015 439.44935,273.90445 437.39605,276.05995 C 435.3137,278.24595 430.71409,278.30266 427.7996,279.09041 C 423.15094,280.34689 415.65312,279.60905 410.62701,280.85817 C 407.2956,281.68612 402.92284,283.31837 400.02041,285.15132 C 397.93486,286.46839 394.97479,288.45919 393.95949,290.70716 C 390.77804,297.75118 394.37307,308.79169 393.45442,316.46605 C 392.95631,320.62726 389.9119,325.94359 390.42396,330.10311 C 391.04492,335.14726 395.07249,341.1011 398.0001,345.2554 C 400.90157,349.3726 406.52326,353.40236 409.61686,357.37723 C 414.00669,363.01758 418.13592,371.73136 422.24376,377.58028 C 423.79428,379.78798 427.7996,384.65135 427.7996,384.65135 L 256.57875,384.65135 z" style="fill:#ffd199;fill-opacity:1;fill-rule:evenodd;stroke:#6a3900;stroke-width:3;stroke-linecap:butt;stroke-linejoin:miter;stroke-miterlimit:4;stroke-dasharray:none;stroke-opacity:1"/>
      <path sodipodi:nodetypes="csscssssssscsscsssssc" id="path3168" d="M 346.73486,225.80486 C 346.73486,225.80486 343.04649,228.57734 341.17902,229.08786 C 339.49818,229.54736 336.99259,229.72478 335.37065,229.08786 C 334.02338,228.5588 331.83511,225.80486 331.83511,225.80486 C 317.28672,229.38947 310.24446,217.04121 309.35922,209.64242 C 309.35922,209.64242 304.26687,208.3623 302.03561,208.12719 C 295.72465,207.46221 292.47931,191.40494 292.43916,190.44952 C 291.24879,162.12489 295.16945,148.14065 314.40998,129.58783 C 322.78283,121.51425 335.39473,117.32519 354.31101,116.70839 C 366.24253,116.31934 376.23274,116.84604 384.36304,121.00153 C 384.36304,121.00153 401.01623,127.95684 407.09148,132.61829 C 412.92184,137.09184 419.21965,144.4055 423.50646,150.80103 C 429.30503,163.45424 427.02094,182.73241 413.40493,184.89368 L 397.49503,187.41906 C 392.98227,188.18962 403.51369,196.64195 391.18157,204.08658 C 380.961,214.39328 368.93185,205.17343 367.94807,206.10689 C 367.94807,206.10689 363.56663,212.29327 362.13969,215.19826 C 360.75561,218.01598 359.38029,222.0054 358.60415,225.04725 C 357.9975,227.42486 359.47231,231.9117 357.34146,233.12847 C 352.18139,236.07501 346.73486,234.1312 346.73486,232.87593 L 346.73486,225.80486 z" style="fill:#919899;fill-opacity:1;fill-rule:evenodd;stroke:#454a4b;stroke-width:3;stroke-linecap:butt;stroke-linejoin:miter;stroke-miterlimit:4;stroke-dasharray:none;stroke-opacity:1"/>
    </g>
  </g>
</svg>