<?xml version="1.0" encoding="UTF-8"?>
<svg width="1600" height="1600" xmlns="http://www.w3.org/2000/svg">
 <title>blueoldbook16^2</title>
 <defs>
  <FONT>
   <FONT>. Fil4 {fill: none}. Fil1 {fill: # EF7900}. Fil3 {fill: white}. Fil0 {fill: # EF7900; fill-rule: nonzero}. Fil2 {fill: white; fill-rule: nonzero}</FONT>
  </FONT>
  <clipPath id="id0">
   <path d="m106.022003,121.782997c-12.367203,0.334404 -25.444801,3.046501 -39.3228,7.698997c13.417297,20.2397 29.278595,39.570511 45.797798,58.087006c15.379196,-7.683807 31.156792,-15.367599 47.915001,-23.050995c-0.179001,-0.319412 -39.967201,-28.908905 -54.389999,-42.735008z" id="path9"/>
  </clipPath>
 </defs>
 <g>
  <title>Layer 1</title>
  <path d="m762.976624,13.786499l-2.256897,0.15243c-93.451111,2.89957 -189.395325,16.01973 -288.21286,38.5595c-98.773712,22.529594 -200.49646,54.499565 -305.205429,94.799057l-6.505081,2.438446l0.265549,0.457306c-179.6238,65.597488 -175.158467,89.478134 -108.726921,261.992889c6.247749,13.096924 12.646194,26.430664 19.116806,39.931274c2.678764,11.985657 6.24942,23.509644 10.753189,34.139801c2.614456,6.169312 5.536125,12.14624 8.761864,17.679688c3.242569,5.560944 6.691437,10.717224 10.487724,15.393494l0.132782,0c1.021904,1.263184 2.23922,2.299683 3.584419,3.048035c8.847244,18.323242 17.923622,36.915283 27.082138,55.781982c3.267242,15.354248 7.917358,30.197205 13.939392,43.741821c2.590485,5.826599 5.582687,11.460083 8.761856,16.917419c3.180374,5.460144 6.600494,10.512878 10.222183,15.240967l0.530991,0.762207c1.686508,2.168152 3.889786,3.614197 6.239532,4.419678c5.451874,11.235962 10.927628,22.619751 16.4617,33.987488c2.747513,22.947083 8.548828,45.198486 17.523849,65.079041c2.409851,5.340515 4.978577,10.452942 7.832535,15.393677c2.87204,4.968323 5.958817,9.802185 9.292938,14.326355l0.265442,0.304932c3.492233,4.700745 8.966339,6.519287 14.072144,5.181885l0.132782,0c0.024216,-0.027466 0.10849,-0.124939 0.13269,-0.152405c8.8004,17.781128 17.738907,35.685608 26.684036,53.648254c3.682892,21.251892 10.101318,41.802673 19.382202,60.506714c2.378387,4.793579 4.892609,9.573853 7.69989,14.174255c2.826874,4.632813 5.887482,9.056641 9.027374,13.259583c2.795288,3.741394 6.721344,5.760132 10.753326,5.944031c8.677368,17.331604 17.406525,34.71283 26.152802,52.124084c2.884857,24.655334 9.521881,48.776367 20.577148,70.565796c2.203522,4.345337 4.64447,8.531982 7.168823,12.650024c2.528503,4.12207 5.20047,8.102173 8.098114,12.040283l0,0.152466c3.760773,5.113037 9.675598,7.015137 15.134155,5.639404c0.007751,-0.001099 0.103058,-0.000366 0.132751,0c13.984283,27.593262 27.913696,55.167114 41.950745,82.605957c-0.000732,0.013306 0.000275,0.139893 0,0.152466c0.273071,2.146362 0.596893,4.418457 0.929352,6.553833c3.575073,22.878296 10.597748,45.267578 21.50647,65.841064c2.093781,3.94873 4.313873,7.812622 6.770508,11.735596c2.393402,3.82019 4.940704,7.672119 7.699829,11.430542l0.13269,0c3.878998,5.256348 9.851715,7.527588 15.399719,6.248657c35.270874,68.203491 70.281982,135.227783 104.478821,199.657349c18.871399,36.019531 36.260498,56.550659 75.670837,31.396362c29.459595,-16.987915 59.275757,-33.904907 89.211853,-50.752563c18.157349,39.74231 35.698669,86.908691 44.074829,119.337036c3.424438,-12.485596 14.086853,-38.586548 17.258423,-56.239258c12.290283,17.514648 35.248291,33.081787 47.65918,40.998291c-18.103027,-33.844116 -35.924866,-86.897827 -58.014343,-132.749146c249.982117,-139.336426 506.733337,-274.05188 694.711121,-406.6297c1.493652,-0.960083 2.787964,-2.163086 3.717041,-3.353088c0.174438,-0.229797 0.379639,-0.529175 0.531006,-0.762146c7.07373,-11.228943 -8.750122,-29.29248 -26.683838,-27.433655c-9.5625,-34.844116 1.303345,-82.569641 27.3479,-138.997864c6.625488,-14.357178 14.377441,-29.442566 22.966919,-44.960999c3.819336,-6.902527 7.822266,-13.892761 11.947632,-20.880188c0.022827,-0.024902 0.109985,-0.127319 0.13269,-0.152405c14.602295,-7.737976 29.248535,-15.431946 43.942261,-23.166138l5.310181,-2.74353l-2.92041,-5.791565l-0.265747,-0.457153c-0.006226,-0.00946 -0.103027,-0.119263 -0.13269,-0.152405c-2.269531,-2.877747 -25.474121,-22.688354 -63.457153,-54.867737c-159.440186,-135.077759 -581.302429,-492.301575 -755.778687,-684.320626l-1.593079,-1.828849zm-99.168579,18.898834c0.134399,-0.014 0.263916,0.013786 0.398254,0c49.46106,12.881271 98.224792,28.705517 146.296814,47.704155c173.844116,176.858498 478.435486,438.311806 646.388123,580.986916c0.001953,0.051941 -0.002075,0.100159 0,0.152527c2.006958,51.690979 1.930786,103.557312 -0.398315,155.610291c-84.046509,45.085815 -166.455688,90.088257 -247.5896,135.035156c-118.999878,65.924011 -235.014648,131.543274 -349.280457,197.066345c-123.363708,-158.846191 -244.301819,-321.082458 -359.369965,-486.94989c-114.472107,-165.005493 -223.153839,-333.590973 -322.994751,-506.001144c101.876038,-38.91198 200.891296,-69.926765 297.240173,-91.903175c64.304901,-14.667583 127.435638,-25.266747 189.309723,-31.70118zm-512.171799,251.628784c0.145447,-0.013336 0.252457,0.012238 0.398254,0c0.301117,-0.025635 0.62645,0.021759 0.929306,0c0.312668,-0.022675 0.614716,0.018738 0.929245,0c0.324722,-0.019409 0.602493,0.015198 0.929321,0c0.697144,-0.032623 1.417343,0.014618 2.124115,0c1.169601,-0.024414 2.388,-0.025238 3.584412,0l0.398239,0.152435c0.011444,-0.000854 0.121582,0 0.132767,0c0.152985,0.030243 0.398056,0.104492 0.531097,0.152435c0.046371,0.026245 0.220169,0.125061 0.265472,0.152374c0.041397,0.023621 0.196899,0.111969 0.265442,0.152405c0.04747,0.024048 0.221481,0.126526 0.265533,0.152313c-0.00119,0.017609 0.000366,0.13855 0,0.152344c0.015732,-0.00116 0.12059,0.000519 0.132782,0c-0.001038,0.03595 -0.001221,0.148285 0,0.152405c-0.015717,0.014771 -0.1203,0.139282 -0.132782,0.152405c0.000641,0.017212 -0.000198,0.138733 0,0.152466c-0.022263,0.055817 -0.110321,0.255768 -0.132782,0.30481c-0.016815,0.022217 -0.114853,0.130829 -0.132751,0.152405c-0.019058,0.021484 -0.112732,0.131622 -0.132675,0.152496c-0.026901,0.031128 -0.115051,0.131958 -0.132767,0.152344c-0.201843,0.177216 -0.43811,0.322327 -0.663803,0.457306c-0.047592,0.026489 -0.196335,0.113373 -0.265533,0.152405c-0.140549,0.049713 -0.404556,0.113159 -0.530991,0.152435c-0.257065,0.071503 -0.650192,0.132996 -0.92926,0.152435c-0.080734,0.003082 -0.183853,0.001343 -0.265518,0l-0.531113,0c-2.286713,-0.031097 -4.496948,0.005463 -6.504974,0.152435c-2.126984,0.155487 -4.12439,0.432037 -6.106766,0.761932c-10.318573,1.721161 -19.302727,5.745544 -26.949448,11.58313c-1.413376,1.078339 -2.917778,2.328888 -4.380882,3.657928c-1.381882,1.258026 -2.677643,2.566254 -3.982742,3.962585c-6.630653,7.10083 -12.153549,15.840942 -16.461731,25.60498c-0.806541,1.833527 -1.573776,3.936035 -2.389549,6.096375c-0.878868,2.327515 -1.678848,4.304199 -2.256889,6.096222c-3.45433,10.710693 -5.690033,22.377319 -6.903282,34.444763l0,0.152405c-0.64447,6.436859 -1.037987,13.045898 -1.062019,19.813202c-0.024307,6.697815 0.349731,13.343781 0.929237,19.96579c3.016357,34.425903 14.030022,67.992004 31.86142,89.921967c0.028091,0.031677 0.114586,0.13147 0.132774,0.152405c0.000282,0.017151 0,0.138458 0,0.152496c-0.015228,0.014771 -0.120415,0.138885 -0.132774,0.152222c0.001137,0.016846 -0.000175,0.138702 0,0.152435c-0.029747,0.033508 -0.125313,0.143005 -0.132774,0.152283c-0.045013,0.052216 -0.220001,0.252533 -0.265434,0.30481c-0.075783,0.07016 -0.270737,0.207733 -0.398323,0.304932c-0.107918,0.08017 -0.280983,0.221313 -0.398247,0.30481c-0.085091,0.058014 -0.200592,0.119995 -0.265556,0.152466c-0.012932,-0.001556 -0.12075,0.000305 -0.132767,0c-0.047127,0.027039 -0.219513,0.124786 -0.265442,0.152344c-0.023369,0.028229 -0.109863,0.124786 -0.132774,0.152466c-0.011917,0 -0.119102,0.000977 -0.132774,0c-0.011627,-0.000153 -0.119644,0.000854 -0.132767,0c-0.046852,0.003967 -0.211296,0.003967 -0.26548,0c-0.016991,-0.000732 -0.117241,-0.000519 -0.132767,0c-0.013123,-0.001251 -0.120377,-0.000153 -0.132782,0c-0.056641,0.029541 -0.212776,0.12085 -0.265549,0.152374c-0.01181,0 -0.118813,0.00058 -0.132675,0c-0.025299,0.000427 -0.116402,0.001617 -0.132759,0c-0.013222,0.00058 -0.121048,0 -0.132774,0c-0.011635,0.000275 -0.118996,-0.000671 -0.132782,0c-0.046768,-0.026917 -0.219429,-0.124725 -0.265434,-0.152374c-0.012131,0 -0.118004,-0.000732 -0.132774,0c-0.134636,-0.034027 -0.391487,-0.100189 -0.531021,-0.152466c-0.011742,-0.013855 -0.119453,-0.13504 -0.132774,-0.152344c-0.005928,0.000092 -0.102745,0.000305 -0.132774,0c-0.011803,-0.013672 -0.118988,-0.135529 -0.132767,-0.152466c-0.01181,-0.013672 -0.118713,-0.135834 -0.13279,-0.152374c-0.029854,-0.000214 -0.125534,-0.001404 -0.132759,0l0,-0.152435c-3.437981,-4.233887 -6.648659,-8.87851 -9.558327,-13.869354c-2.926079,-5.020142 -5.55098,-10.455994 -7.965393,-16.155487c-12.501038,-29.503601 -17.727463,-66.416229 -14.337624,-100.133301c0.257233,-2.545715 0.493965,-4.980469 0.796562,-7.163177c0.326431,-2.354034 0.783798,-4.709015 1.194786,-7.010956c2.110146,-11.76178 5.365372,-22.965118 9.823952,-33.072845c0.918419,-2.082367 1.833504,-4.07959 2.787865,-5.943909c0.998169,-1.949371 1.98616,-3.837006 3.053345,-5.639221c5.514038,-9.312805 12.418617,-17.24472 20.577133,-23.4711l0.265556,-0.30484c1.594116,-1.204559 3.30336,-2.344208 5.177414,-3.505493c1.753693,-1.087006 3.63398,-2.238129 5.575768,-3.200684c7.442917,-3.686981 15.796082,-6.328125 24.958099,-7.163147zm69.165771,102.876709c0.174332,-0.016571 0.356186,0.015137 0.531006,0c0.110672,-0.003723 0.287613,-0.001373 0.3983,0c0.022186,-0.000763 0.110535,0.001678 0.13269,0c0.027618,0.000305 0.121658,0.000305 0.132782,0c0.08815,0.000549 0.1772,-0.001038 0.265518,0c0.027542,0.000214 0.121429,0.000824 0.132767,0c0.37468,-0.027679 0.684952,0.022034 1.062027,0c0.389267,-0.023041 0.80304,0.01709 1.194794,0c0.616577,-0.027496 1.235413,0.013275 1.858673,0l0.398163,0c0.012787,-0.000549 0.121338,0 0.132782,0c0.148849,0.032104 0.405609,0.111786 0.530991,0.152435c0.112823,0.039917 0.295349,0.101898 0.398254,0.152313c0.075134,0.039154 0.19809,0.109375 0.265549,0.152374c0.104691,0.073364 0.302872,0.219238 0.398315,0.305023c0.025589,0.030243 0.117798,0.136719 0.132782,0.152069c0.027359,0.031952 0.121475,0.140167 0.132645,0.152466c0.02803,0.031555 0.122635,0.139282 0.132782,0.152435c0.014343,0.015717 0.120972,0.138977 0.132782,0.152435c0.014542,0.01535 0.120865,0.138947 0.132782,0.152435c0.046387,0.121155 0.102097,0.351105 0.13269,0.457245c-0.000732,0.014954 0.000366,0.139069 0,0.152435c-0.000366,0.015015 0.000305,0.13913 0,0.152374l0.132782,0.304871c-0.036591,0.040253 -0.123367,0.139496 -0.132782,0.152405c-0.000534,0.043304 -0.000656,0.223816 0,0.304932c0.000305,0.033478 0.000748,0.144104 0,0.152374c-0.0242,0.027039 -0.108093,0.124939 -0.13269,0.152435c0.000565,0.01651 -0.000168,0.138489 0,0.152466c-0.024582,0.026978 -0.108109,0.124939 -0.132782,0.152252c0.000961,0.016571 -0.000168,0.138641 0,0.152435c-0.023544,0.026642 -0.108887,0.125824 -0.132782,0.152435c-0.141556,0.211426 -0.34462,0.434082 -0.530945,0.609528c-0.020645,0.024597 -0.109894,0.123566 -0.132797,0.152405c-0.012039,0.013885 -0.120682,0.139679 -0.132782,0.152435c-0.047516,0.027374 -0.219162,0.12738 -0.265549,0.152435c-0.012924,-0.001495 -0.120377,0.000214 -0.132706,0c-0.056702,0.028229 -0.21286,0.120178 -0.265549,0.152435c-0.011505,-0.000519 -0.119446,0.001404 -0.13266,0c-0.294235,0.106384 -0.72113,0.251068 -1.062103,0.304871c-0.011566,-0.000183 -0.119644,0.000336 -0.132767,0c-0.027023,0.001495 -0.106262,-0.000549 -0.132751,0l-0.39827,0l-0.132736,0c-2.38884,0.067047 -4.604492,0.343445 -6.770538,0.609619c-2.294006,0.281403 -4.426239,0.60025 -6.505081,1.066772c-10.926712,2.455414 -20.598312,7.43866 -28.807999,14.479034l0,0.152374c-1.75209,1.503662 -3.491821,3.135529 -5.310196,5.029449c-1.786514,1.859772 -3.509308,3.729675 -5.044769,5.639252c-8.099548,10.066437 -14.480911,22.564789 -19.249588,36.425842l-0.265472,0.914612c-0.933289,2.766968 -1.860306,5.537964 -2.655075,8.382629c-0.791855,2.832336 -1.451263,5.725494 -2.12413,8.687286c-3.367279,14.80481 -5.170303,30.673523 -5.310211,46.789795l0,1.066895c-0.027161,6.428345 0.225739,12.755371 0.663712,18.898926c0.448563,6.265991 1.059677,12.500977 1.991425,18.746277c4.749069,31.848755 15.809738,61.983887 32.790634,83.825684l0.132767,0.304749c0.035782,0.076416 0.10498,0.238708 0.132813,0.304749c0.024475,0.052734 0.109634,0.251343 0.132751,0.304871c-0.000656,0.014709 0.000275,0.139099 0,0.152649c0.000412,0.05249 0.001007,0.251221 0,0.30481c0.001007,0.045654 0.000717,0.224548 0,0.30481c0.001617,0.051636 0.000107,0.252014 0,0.304688c-0.022614,0.052063 -0.108398,0.252197 -0.132751,0.304749c0.000702,0.016418 -0.000214,0.138428 0,0.152222c-0.024414,0.027161 -0.1082,0.125488 -0.132813,0.152405c0.00087,0.016663 -0.000168,0.139038 0,0.152466c-0.029282,0.033142 -0.124603,0.142456 -0.132767,0.152466c-0.07225,0.080017 -0.20076,0.233704 -0.265549,0.304871c-0.028366,0.031006 -0.102478,0.121521 -0.132645,0.152466l-0.265564,0.30481c-0.044449,0.025208 -0.220764,0.128906 -0.265533,0.152405c-0.069412,0.039856 -0.224655,0.128235 -0.265503,0.152466c-0.023071,0.0271 -0.109558,0.124939 -0.132751,0.152405c-0.005646,-0.000854 -0.102661,-0.000305 -0.132767,0c-0.045364,0.026794 -0.219238,0.125916 -0.265472,0.152466c-0.013199,-0.001343 -0.120468,0 -0.132751,0c-0.055267,0.028625 -0.211746,0.120483 -0.265533,0.152344c-0.307495,0.048828 -0.77356,0.012817 -1.062012,0c-0.38208,-0.030701 -0.856979,-0.150146 -1.194885,-0.30481c-0.052475,-0.032837 -0.208725,-0.124146 -0.265488,-0.152405c-0.012238,0 -0.119705,-0.001404 -0.132751,0c-0.105576,-0.076477 -0.279572,-0.197693 -0.398193,-0.304871c-0.011551,-0.013611 -0.11969,-0.136902 -0.132782,-0.152527c-0.012024,-0.01416 -0.10527,-0.120972 -0.132797,-0.152283l-0.531021,-0.609802l0.132706,-0.152466c-3.392609,-4.427734 -6.567169,-9.113708 -9.425629,-14.021484c-2.861679,-4.911499 -5.499725,-10.152832 -7.965317,-15.698364c-12.532852,-28.1875 -18.873245,-62.058655 -18.585815,-94.951355l0,-1.066772c0.039093,-3.112427 0.219162,-6.355286 0.398239,-9.754456c0.170181,-3.245392 0.365799,-6.401184 0.663773,-9.601715c1.512802,-16.161346 4.690399,-31.723816 9.558411,-45.875336l0,-0.152405c1.020615,-2.967072 2.109955,-5.759277 3.186203,-8.382629c1.142471,-2.780334 2.347061,-5.374634 3.584412,-7.925385c6.422775,-13.221497 14.655731,-24.657715 24.825348,-33.377777l0.265472,-0.30484c1.700912,-1.444244 3.579803,-2.858978 5.575745,-4.267303c2.032059,-1.43457 3.968689,-2.735382 5.841202,-3.810242c8.779587,-5.043152 18.755981,-8.559418 29.737335,-9.601837zm73.944901,114.002594c0.199097,-0.022278 0.46405,0.020844 0.663879,0c0.02533,-0.002747 0.105804,0.000824 0.132721,0c0.111694,0.001099 0.286407,-0.001465 0.398224,0c0.026978,-0.000824 0.10733,0.002441 0.132751,0c0.026611,0.000366 0.119263,0.000366 0.132782,0c0.11145,0.001099 0.286682,-0.001312 0.398315,0c0.02655,0.000366 0.119751,0.001099 0.132751,0c0.026459,0.000366 0.119141,0.000366 0.132721,0c0.111115,0.000824 0.286987,-0.001312 0.398315,0c0.026398,0.000366 0.119446,0.001099 0.13266,0c0.026459,0.000366 0.11911,0.000366 0.132782,0c0.110992,0.000824 0.28714,-0.001129 0.398315,0c0.026367,0.000366 0.119293,0.000824 0.13269,0c0.026428,0.000366 0.119019,0.000366 0.132751,0c0.110718,0.000732 0.287506,-0.001129 0.398346,0c0.026245,0.000275 0.119019,0.000824 0.13266,0l0.265564,0c0.890533,0.01123 1.792938,0.37851 2.389648,0.91449c0.100189,0.099091 0.311584,0.344391 0.398254,0.457214c0.055511,0.06131 0.212555,0.238464 0.265564,0.304688c0.023712,0.052643 0.112305,0.253052 0.132629,0.304901c0.021729,0.045929 0.098877,0.224457 0.132782,0.304871c-0.000092,0.01413 0.00119,0.137268 0,0.152435c0.024506,0.052429 0.109863,0.252167 0.132782,0.304871c0.000458,0.052216 0.001495,0.252258 0,0.30484l0,0.45694c0.000549,0.016205 0,0.139008 0,0.152435c0.00119,0.014862 0,0.138885 0,0.152405c-0.024841,0.054443 -0.110413,0.254181 -0.132782,0.304962c0.001007,0.014801 -0.000153,0.13916 0,0.152374c-0.023376,0.053894 -0.108734,0.252228 -0.132782,0.30481c-0.033447,0.079834 -0.105957,0.245605 -0.132629,0.304932c-0.067596,0.132965 -0.19046,0.335693 -0.265564,0.457214c-0.202728,0.307068 -0.527802,0.669586 -0.79657,0.914398c-0.022919,0.0271 -0.109772,0.125519 -0.132782,0.152496c-0.617493,0.470734 -1.433136,0.863007 -2.256775,0.914368l-0.132813,0c-2.486633,0.167816 -4.960907,0.374878 -7.301514,0.762177c-2.366364,0.390503 -4.749542,0.91571 -7.036102,1.523895c-11.73053,3.124481 -22.136292,9.039703 -31.330368,17.070038c-2.292267,2.004333 -4.510773,4.151062 -6.637787,6.401245c-2.137665,2.26001 -4.276642,4.685242 -6.239517,7.163391c-10.044617,12.67865 -18.055664,28.225281 -23.896011,45.570435l0,0.152466l0,0.304688c-1.232849,3.687317 -2.415695,7.087524 -3.318878,10.364014c-0.957352,3.4729 -1.833282,7.102173 -2.655136,10.821045c-4.098877,18.547363 -5.902084,38.328247 -5.442978,58.06842l0,0.45697c0.139984,5.684875 0.415985,11.266052 0.929245,16.765076c0.519379,5.570496 1.218002,11.150146 2.124115,16.612671c4.675369,28.198242 14.566116,54.627625 29.870071,75.290588l0.13269,0.152344c0.077454,0.120667 0.206116,0.328918 0.265579,0.457275c0.142365,0.348145 0.247513,0.846497 0.265518,1.21936c0.000732,0.122803 0.007767,0.327942 0,0.457397c-0.095093,0.839905 -0.519012,1.757446 -1.194778,2.438354l-0.265518,0.152588c-0.023056,0.026978 -0.110184,0.12561 -0.132813,0.152222c-0.102097,0.080444 -0.304459,0.242188 -0.398209,0.304749c-0.060898,0.038086 -0.209106,0.12323 -0.265533,0.152405c-0.117905,0.043152 -0.402954,0.115967 -0.531036,0.152405c-0.044617,0.028015 -0.220169,0.125671 -0.265533,0.152527c-0.790146,0.20343 -1.677841,0.129822 -2.389572,-0.152527c-0.316162,-0.13916 -0.66127,-0.365417 -0.929321,-0.609558c-0.028152,-0.032349 -0.11937,-0.136597 -0.132751,-0.152222c-0.055267,-0.060608 -0.198853,-0.226013 -0.265427,-0.304932l-0.265564,-0.304932c-3.067749,-4.162659 -5.85611,-8.539978 -8.496323,-13.107117c-2.655319,-4.594788 -5.081467,-9.405151 -7.30162,-14.326599c-11.509277,-25.494324 -17.490677,-55.167542 -18.187515,-85.044739l0,-0.457336c-0.085846,-3.966736 -0.09787,-7.911438 0,-11.887939c0.091736,-3.757629 0.235916,-7.72168 0.531036,-11.887878c1.431473,-20.202271 5.223953,-39.910706 11.284164,-57.91571c1.18309,-3.511902 2.566208,-7.150635 3.982742,-10.66864c1.419418,-3.524109 2.856049,-6.863953 4.38089,-10.059265c7.980911,-16.730042 18.328201,-31.165955 30.799301,-42.065125l0,-0.152405l0.132767,0c1.890808,-1.646973 3.913681,-3.261292 6.106766,-4.877197c2.157318,-1.589722 4.248291,-3.118774 6.372314,-4.419861c10.238831,-6.267242 21.440704,-10.63913 33.985413,-12.040405zm83.237946,127.87207c0.026276,0.000244 0.118774,0.00061 0.132751,0c0.027649,-0.000244 0.105438,-0.001465 0.132782,0c0.054596,0.002747 0.210419,-0.001099 0.265442,0c0.026276,0.000244 0.118561,0.001587 0.132782,0l0.132782,0c0.026306,0.000244 0.118683,0.000732 0.132751,0c0.173187,-0.0047 0.389771,-0.00415 0.531036,0c0.046417,-0.001099 0.220764,-0.000244 0.265411,0c0.151672,0.030396 0.394623,0.104065 0.531097,0.152161c0.115234,0.044067 0.290375,0.10791 0.398254,0.152466c0.280426,0.115662 0.649963,0.288086 0.929291,0.457214c0.045532,0.024414 0.220032,0.125916 0.265472,0.152466c0.023651,0.026917 0.110229,0.125671 0.132751,0.152466c0.109985,0.11615 0.315002,0.357727 0.398346,0.457214c0.116821,0.160339 0.309387,0.457825 0.398254,0.60968c0.079285,0.160645 0.193054,0.436279 0.265533,0.609741c0.024292,0.052185 0.110504,0.252563 0.132782,0.304626c0.04129,0.156311 0.106598,0.448792 0.13266,0.609619c0.000092,0.05188 0.00116,0.252686 0,0.304871l0.132782,0.152527c0.001373,0.026672 -0.000458,0.112732 0,0.152405c-0.000092,0.087036 0.001129,0.251404 0,0.304871c0.000702,0.015442 0,0.138916 0,0.152466c-0.027283,0.059998 -0.106934,0.23938 -0.132782,0.304565c0,0.01416 -0.001038,0.137451 0,0.152466c0.001465,0.052673 -0.000458,0.252075 0,0.304871c-0.023193,0.052734 -0.108551,0.251953 -0.13266,0.304626c-0.023071,0.053284 -0.109039,0.252136 -0.132782,0.304871c-0.000092,0.034424 -0.000183,0.145935 0,0.152466c-0.025299,0.05719 -0.097565,0.22583 -0.132751,0.30481c-0.065308,0.119141 -0.193085,0.346313 -0.265594,0.457275c-0.023193,0.026611 -0.109406,0.12616 -0.132751,0.152405c-0.02066,0.027893 -0.111053,0.124878 -0.13269,0.152466c-0.022064,0.026611 -0.109863,0.125793 -0.132782,0.152466c-0.023285,0.025574 -0.108612,0.126831 -0.132782,0.152405c-0.026398,0.030457 -0.115204,0.132141 -0.132782,0.152466c-0.10318,0.093872 -0.28595,0.221008 -0.398224,0.304749c-0.045685,0.026245 -0.219177,0.126526 -0.265564,0.152344c-0.180481,0.107971 -0.446777,0.214966 -0.663727,0.304871c-0.330505,0.128052 -0.731415,0.265503 -1.062012,0.30481l-0.132751,0c-2.579803,0.2901 -5.065399,0.6922 -7.567078,1.219299c-2.46994,0.521362 -4.986816,1.214233 -7.434357,1.981201c-12.414185,3.896301 -23.582947,10.759949 -33.454529,19.813599c-2.690002,2.466736 -5.322876,4.974731 -7.699707,7.620239c-2.416168,2.683105 -4.658997,5.552246 -6.90332,8.535217c-11.444519,15.211548 -20.473206,33.897339 -26.683899,54.410339l0,0.152283c-1.237366,4.096008 -2.33609,8.272095 -3.318909,12.345215c-1.022064,4.232727 -1.88443,8.469604 -2.655212,12.650085c-4.027985,21.861023 -5.240814,44.860229 -3.186096,67.517456l0,0.152466c0.46817,5.143127 1.116455,10.170227 1.858643,14.936096c0.739105,4.754028 1.66333,9.63031 2.78775,14.631653c5.602722,24.91394 15.481537,48.266479 30.002899,67.669861l0.132721,0.152466c0.079071,0.119629 0.193665,0.322327 0.265503,0.457092c0.090698,0.182312 0.203461,0.433411 0.265564,0.609497c0.023804,0.053101 0.109406,0.251648 0.13266,0.304932c-0.000671,0.052917 0.001434,0.251709 0,0.304749c0.061401,0.321838 0.119812,0.721619 0.132843,1.067078c0.000153,0.028198 0.000427,0.124268 0,0.152283c0.000366,0.03125 0.001099,0.139221 0,0.152222c0.000244,0.015137 0,0.139343 0,0.152466c0.000427,0.015259 -0.000153,0.139404 0,0.152466c-0.023865,0.053345 -0.108276,0.251587 -0.132843,0.304871c0.001434,0.053223 -0.00058,0.251526 0,0.304871c-0.024292,0.02655 -0.108398,0.125793 -0.13266,0.152527c-0.063293,0.162903 -0.181091,0.438293 -0.265564,0.60968c-0.013824,0.014221 -0.120728,0.139221 -0.132751,0.152405c-0.09201,0.138855 -0.283386,0.449402 -0.398224,0.609741c-0.029205,0.034973 -0.105133,0.120117 -0.132782,0.152039c-0.028625,0.031067 -0.103363,0.122498 -0.132751,0.152527l-0.132751,0.152466l-0.132721,0.152405c-0.089142,0.072815 -0.301666,0.237732 -0.398346,0.304871c-0.013092,-0.00177 -0.120422,0 -0.132751,0c-0.056702,0.028076 -0.212769,0.119934 -0.265442,0.152344c-0.140045,0.076477 -0.377319,0.229126 -0.531097,0.304749c-0.011536,-0.000305 -0.119629,0.00116 -0.13269,0c-0.01123,-0.000488 -0.120819,0.001465 -0.132751,0c-1.439178,0.383484 -3.038361,-0.073914 -4.115417,-1.21936c-0.054077,-0.061829 -0.198303,-0.225769 -0.265533,-0.304626l-0.132813,0c-3.001526,-4.016357 -5.677948,-8.161194 -8.230774,-12.345215c-2.572479,-4.213257 -5.048157,-8.563843 -7.301605,-13.107117c-11.528748,-23.23468 -18.265381,-49.585938 -20.70993,-76.510071l0,-0.152283c-0.415405,-4.605103 -0.766693,-9.159973 -0.929291,-13.717041c-0.167084,-4.643005 -0.21106,-9.312134 -0.132751,-13.869385c0.404938,-23.60022 3.978973,-46.939331 10.487671,-68.431763l0,-0.152527c1.268982,-4.18988 2.72644,-8.227173 4.24823,-12.345337c1.475189,-3.989624 3.152344,-8.068909 4.911987,-12.040283c8.83139,-19.908875 20.351959,-37.286133 34.51651,-50.295349l0.132751,0c2.111603,-1.936279 4.284851,-3.748352 6.505005,-5.486755c2.179443,-1.708069 4.547485,-3.325073 6.90329,-4.877075c11.753021,-7.743713 24.791046,-12.921814 39.162994,-14.631287zm90.273895,145.094177c0.00766,0.001282 0.103027,0.000305 0.132782,0c0.025848,0.000854 0.11795,0.001038 0.132721,0c0.060669,-0.001099 0.203094,-0.002747 0.265503,0c0.346405,0.026001 0.764801,0.099487 1.062103,0.152344c0.012665,-0.000549 0.121002,0.000244 0.132721,0c0.123016,0.029236 0.410065,0.118774 0.531006,0.152466c0.011841,-0.000305 0.11972,0.001221 0.132721,0c0.146606,0.073914 0.411163,0.240723 0.531006,0.304871c0.202576,0.115662 0.481506,0.31189 0.663879,0.457275c0.1409,0.118591 0.360992,0.294312 0.531006,0.457153c0.026764,0.031738 0.120667,0.139832 0.13266,0.152405c0.029388,0.033691 0.10733,0.11969 0.132843,0.152344c0.022552,0.053528 0.11087,0.251282 0.132721,0.304871c0.014191,0.01532 0.121063,0.139282 0.132751,0.152405c0.317017,0.551208 0.583801,1.308289 0.663788,1.981262c-0.00058,0.030762 -0.000885,0.136841 0,0.152588c0.004578,0.195313 0.003479,0.441345 0,0.60968c0.000977,0.052185 0.000122,0.253479 0,0.304626c0.00061,0.01709 -0.000031,0.138794 0,0.152466c-0.024261,0.05426 -0.109467,0.252075 -0.13266,0.30481c-0.033813,0.149048 -0.096649,0.466248 -0.132843,0.609741c-0.567444,1.821533 -2.072388,3.216736 -3.982605,3.505371c-2.802826,0.427063 -5.506195,1.035217 -8.098267,1.676514c-2.688232,0.665588 -5.395721,1.402893 -7.96524,2.286194c-13.280884,4.569275 -25.51944,12.139771 -36.507843,21.947083c-2.960693,2.644165 -5.888306,5.464111 -8.76178,8.535034c-2.834167,3.02771 -5.491058,6.155396 -8.098175,9.449219c-13.428253,16.963196 -24.320007,37.761108 -31.86142,60.354492c-1.438507,4.314636 -2.734863,8.912109 -3.982666,13.564331c-1.243622,4.631287 -2.378113,9.145996 -3.318909,13.716919c-4.919342,23.858032 -6.310364,48.970337 -3.584381,73.309204c0.484497,4.314697 1.104462,8.66925 1.858643,12.954834c0.773438,4.395874 1.6586,8.720764 2.65509,12.802368c5.28302,21.62323 14.280426,42.00238 27.347687,59.744812l0.132751,0.152344c0.000488,0.035034 0.000336,0.14563 0,0.152466c0.014404,0.015747 0.120972,0.139282 0.132813,0.152466c0.023376,0.053589 0.110291,0.251587 0.132629,0.304565c0.030518,0.06665 0.105652,0.238281 0.132782,0.305054c0.023865,0.053467 0.109772,0.251831 0.132782,0.304932c0.02417,0.053101 0.109528,0.251831 0.132782,0.304688c-0.000336,0.053345 0.001312,0.251953 0,0.30481c-0.00058,0.016846 0.000061,0.138672 0,0.152344c0.02417,0.053345 0.109375,0.251221 0.132782,0.30481c-0.000458,0.016235 0.000183,0.13916 0,0.152466c-0.000458,0.031616 -0.000671,0.139038 0,0.152222c0.001862,0.072266 0.001282,0.233887 0,0.304932c0.000732,0.053589 0.000061,0.252197 0,0.305054c0.000732,0.016968 -0.000092,0.13855 0,0.152344c-0.02478,0.055786 -0.110229,0.253052 -0.132782,0.30481c0.001465,0.053467 -0.00058,0.252075 0,0.304688c-0.023193,0.053589 -0.108704,0.252197 -0.132782,0.304932c-0.022888,0.053467 -0.108978,0.251953 -0.132782,0.304565c-0.026001,0.068237 -0.103638,0.238525 -0.132782,0.305054c-0.022614,0.050049 -0.097809,0.225464 -0.132629,0.30481c-0.06958,0.12915 -0.184509,0.33374 -0.265564,0.457275c-0.023285,0.026855 -0.109131,0.125732 -0.132782,0.152466c-0.063843,0.099243 -0.200409,0.349854 -0.265472,0.457153c-0.0354,0.041382 -0.119019,0.135132 -0.132782,0.152466l-0.398315,0.304688c-0.103699,0.089355 -0.28064,0.224609 -0.398193,0.304932c-0.159302,0.102661 -0.378265,0.223633 -0.531036,0.304688c-0.011688,-0.000244 -0.118896,0.001465 -0.132782,0c-0.023346,0.028442 -0.109314,0.125 -0.132751,0.152344c-0.011475,0.000244 -0.119598,0.001465 -0.132813,0c-0.045715,0.026611 -0.218048,0.12439 -0.265442,0.152466c-0.011902,0.000122 -0.118164,0.00061 -0.132751,0c-0.011566,0.000122 -0.119507,0.000732 -0.132782,0c-1.774445,0.461914 -3.748444,-0.093384 -4.912018,-1.676392c-2.674561,-3.633667 -5.202332,-7.422852 -7.567047,-11.278442c-2.367493,-3.859863 -4.610077,-7.738403 -6.637726,-11.735596c-10.514435,-20.720825 -16.754181,-43.592468 -19.382385,-67.060425l0,-0.152222c-0.543579,-4.87738 -0.964539,-9.763611 -1.194794,-14.783813c-0.23349,-5.051758 -0.345306,-10.151245 -0.265564,-15.088623c0.415344,-25.645325 4.946167,-51.231018 12.877411,-74.985596l0,-0.152588c1.568268,-4.695068 3.251953,-9.282227 5.044647,-13.716736c1.801514,-4.461975 3.77002,-8.797363 5.841339,-13.107178c10.568665,-21.992065 24.338043,-41.28363 40.75592,-55.934509c2.271759,-2.023499 4.762207,-4.13147 7.301605,-6.096619c2.503448,-1.937012 4.944641,-3.683838 7.434357,-5.334229c13.034119,-8.629883 27.37561,-14.435486 42.747314,-16.765198c-0.000427,-0.013062 0.001434,-0.135315 0,-0.152344zm1051.160065,22.709167c-0.915405,1.629333 -1.763428,3.26593 -2.655029,4.877014c-8.668945,15.660278 -16.407349,30.933899 -23.232056,45.723145c-33.417114,72.400452 -42.72229,132.184631 -17.921997,171.76593c-0.786499,0.740051 -1.797852,1.450989 -3.053345,2.133789c-13.907959,7.56134 -454.434082,258.535583 -681.037415,386.206604c-16.467529,-29.599976 -35.417969,-53.669067 -56.421021,-70.108276l-60.138367,35.206543c13.109009,4.33374 24.080872,-1.390137 43.543762,24.690552c6.888184,9.225952 14.746094,22.689575 22.701416,38.407349c-47.364929,26.562866 -77.862183,43.535034 -81.246704,44.80835c-17.898071,6.734009 -28.990906,-5.377686 -35.976868,-17.984253c-77.064331,-122.097534 125.302185,-226.484375 233.517517,-298.113892c1.446716,-0.865601 2.704834,-1.749023 3.849976,-2.591064c0.208313,-0.153076 0.46521,-0.304932 0.663879,-0.457275c0.03479,-0.022339 0.101257,-0.138062 0.132751,-0.152222c0.010681,-0.005981 0.121277,0.007324 0.132507,0c115.540771,-66.264771 232.395142,-132.278198 351.271973,-198.133179c100.123413,-55.467773 201.809204,-110.980835 305.869019,-166.279114zm-948.938171,145.094299l0.132813,0c0.013794,0 0.121033,-0.000122 0.132751,0c0.345093,-0.038696 0.703857,-0.024231 1.062134,0c0.342834,0.022095 0.719238,0.06897 1.061951,0.152344c0.013977,-0.001465 0.121094,0.000183 0.132813,0c1.872986,0.604248 3.244263,2.341431 3.584412,4.572327l0.132813,0l0,0.152222c0.000244,0.02533 0.001282,0.126343 0,0.152588c0.000061,0.012268 -0.000488,0.139832 0,0.152344c0.058838,0.797607 -0.043213,1.719849 -0.265564,2.438538c-0.06488,0.167969 -0.204834,0.469849 -0.265564,0.609619c-0.108582,0.236389 -0.261108,0.545959 -0.398315,0.762085c-0.284485,0.448059 -0.664124,0.872986 -1.062012,1.219177c-0.642883,0.53186 -1.529785,0.894592 -2.389587,1.066956l0,0.152466l-0.132751,0c-2.904663,0.565918 -5.719177,1.177551 -8.496399,1.981323c-2.740601,0.792175 -5.538208,1.807129 -8.363586,2.895813c-14.093262,5.426941 -27.203613,13.922791 -39.162964,24.842957l-0.132751,0c-3.304565,3.017822 -6.430481,6.214539 -9.558441,9.601624c-3.059204,3.311768 -6.07251,6.911743 -9.027344,10.668701c-14.897949,18.933289 -27.05072,41.792419 -35.313049,66.60321l0,0.152344c-1.553436,4.677979 -3.02475,9.651245 -4.380951,14.784058c-1.327667,5.022827 -2.455292,10.066406 -3.451569,15.088379c-5.173737,26.066162 -6.226044,53.155396 -2.124237,79.405396l0,0.152588c0.632141,4.044434 1.450073,7.888428 2.256958,11.583252c0.835327,3.828247 1.707092,7.625244 2.78775,11.430664c5.533478,19.467163 14.281769,37.990479 26.551208,54.71521l0.132599,0.30481c0.013367,0.014404 0.121307,0.13916 0.132935,0.1521c0.240265,0.386475 0.503632,0.943848 0.663879,1.37207c0.043579,0.128174 0.102081,0.331909 0.13266,0.457153c0.045868,0.209229 0.108276,0.549805 0.132751,0.762085c-0.000946,0.030518 -0.000702,0.137451 0,0.152222c0.002808,0.194214 0.001099,0.450439 0,0.609619c-0.001312,0.031494 -0.000732,0.113647 0,0.152588c0.001007,0.061523 0.001984,0.250977 0,0.30481c-0.042358,0.327026 -0.184357,0.753906 -0.265411,1.067017c0.00061,0.014893 0.000061,0.137939 0,0.152466c-0.025452,0.05542 -0.110657,0.255493 -0.132813,0.304688c0.000336,0.015381 -0.000275,0.138794 0,0.152222c-0.064514,0.159302 -0.188019,0.455933 -0.265564,0.609619c-0.061218,0.113647 -0.197144,0.347412 -0.265503,0.457397c-0.046753,0.05249 -0.218384,0.252441 -0.265533,0.30481c-0.157288,0.206055 -0.344177,0.425049 -0.530945,0.609741l-0.132782,0.152344l-0.132751,0c-0.023224,0.026367 -0.10968,0.125732 -0.132813,0.152222c-0.195953,0.158325 -0.462097,0.317261 -0.663757,0.45752c-0.023804,0.027222 -0.1091,0.124512 -0.132874,0.1521c-0.363129,0.194824 -0.70517,0.364014 -1.061859,0.45752l-0.132935,0c-1.967743,0.516113 -4.112244,-0.165161 -5.442932,-1.981445l0,-0.152466c-2.510651,-3.425537 -4.882355,-6.864624 -7.168823,-10.516357c-2.230804,-3.563354 -4.358246,-7.325806 -6.372223,-11.125854c-10.205658,-19.247803 -16.828064,-40.020142 -20.178711,-61.421021l0,-0.152588c-0.837036,-5.363403 -1.419037,-10.737915 -1.858704,-16.155273c-0.439514,-5.441406 -0.741058,-11.008057 -0.796692,-16.460327c-0.29184,-28.067017 4.425995,-56.25061 13.142883,-82.453979c1.716034,-5.15332 3.597931,-10.199463 5.575806,-15.088379c2.062195,-5.093018 4.167114,-9.901245 6.372345,-14.479004c11.711884,-24.305725 27.11438,-45.877258 45.13681,-62.335876c2.481781,-2.266357 5.150452,-4.407227 7.832703,-6.553589c2.644226,-2.11615 5.248474,-4.216309 7.965393,-6.096252c14.001038,-9.699341 29.266174,-16.524292 45.402344,-19.660889z" id="path13" fill-rule="nonzero" fill="#003f7f"/>
  <path d="m68.677727,193.894592l1.562431,0l0,0.30957l-1.19458,0l0,0.801239l1.078033,0l0,0.30957l-1.078033,0l0,1.298386l-0.367851,0l0,-2.718765m3.046555,0.992447c-0.037628,-0.021851 -0.078918,-0.037628 -0.123833,-0.047348c-0.043701,-0.010925 -0.092262,-0.016388 -0.145676,-0.016388c-0.189392,0 -0.33506,0.06192 -0.437042,0.185745c-0.100769,0.122604 -0.151154,0.299255 -0.151154,0.529907l0,1.074402l-0.336884,0l0,-2.039536l0.336884,0l0,0.316864c0.070419,-0.12384 0.162086,-0.215485 0.274986,-0.274979c0.1129,-0.060699 0.250076,-0.091049 0.411537,-0.091049c0.023056,0 0.048561,0.001816 0.076492,0.005463c0.027916,0.002426 0.058868,0.006683 0.092865,0.012756l0.001823,0.344162m2.019478,0.622787l0,0.163879l-1.540558,0c0.014572,0.230667 0.083771,0.406708 0.207596,0.528107c0.125046,0.120178 0.298645,0.180283 0.520805,0.180267c0.128685,0.000015 0.25312,-0.015778 0.373306,-0.047333c0.121399,-0.03157 0.241585,-0.078918 0.36055,-0.142044l0,0.316864c-0.120178,0.05098 -0.243385,0.089828 -0.369652,0.116531c-0.126259,0.026718 -0.254333,0.040054 -0.384224,0.040054c-0.325363,0 -0.583336,-0.094681 -0.773933,-0.284073c-0.189377,-0.189377 -0.284081,-0.445526 -0.284081,-0.768463c0,-0.333847 0.089844,-0.598495 0.269508,-0.793961c0.180885,-0.196671 0.424294,-0.295013 0.730225,-0.295013c0.274361,0 0.491066,0.088638 0.650101,0.265884c0.160248,0.176025 0.240364,0.415787 0.240364,0.719299m-0.33506,-0.098343c-0.002426,-0.183319 -0.054024,-0.32959 -0.154785,-0.438858c-0.099548,-0.109253 -0.231873,-0.163879 -0.39698,-0.163895c-0.186951,0.000015 -0.336884,0.052826 -0.449783,0.158432c-0.111694,0.105621 -0.176041,0.254333 -0.193031,0.446152l1.19458,-0.001831m2.629547,0.098343l0,0.163879l-1.540581,0c0.014565,0.230667 0.083763,0.406708 0.207596,0.528107c0.125038,0.120178 0.298637,0.180283 0.520798,0.180267c0.128693,0.000015 0.25312,-0.015778 0.373314,-0.047333c0.121399,-0.03157 0.241592,-0.078934 0.360558,-0.142044l0,0.316864c-0.120186,0.05098 -0.243408,0.089828 -0.369659,0.116516c-0.126259,0.026733 -0.254341,0.04007 -0.384232,0.04007c-0.325356,0 -0.583336,-0.094681 -0.773933,-0.284088c-0.189384,-0.189362 -0.284073,-0.445511 -0.284073,-0.768448c0,-0.333862 0.089836,-0.598495 0.269508,-0.793961c0.180878,-0.196671 0.424294,-0.295013 0.730225,-0.295013c0.274353,0 0.491058,0.088638 0.650093,0.265884c0.16024,0.176025 0.240372,0.415787 0.240387,0.719299m-0.335075,-0.098343c-0.002426,-0.183319 -0.054031,-0.32959 -0.154785,-0.438858c-0.099556,-0.109253 -0.231873,-0.163879 -0.39698,-0.16391c-0.186966,0.000031 -0.336884,0.052841 -0.449791,0.158447c-0.111679,0.105621 -0.176025,0.254333 -0.193024,0.446152l1.19458,-0.001831m3.414391,0.158432c0,-0.242813 -0.050392,-0.430969 -0.151146,-0.564514c-0.099556,-0.133545 -0.239777,-0.200317 -0.420654,-0.200317c-0.179672,0 -0.319878,0.066772 -0.420662,0.200317c-0.099525,0.133545 -0.149315,0.321701 -0.149307,0.564514c-0.000008,0.241577 0.049782,0.429138 0.149307,0.562698c0.100784,0.13353 0.24099,0.200302 0.420662,0.200302c0.180878,0 0.321098,-0.066772 0.420654,-0.200302c0.100754,-0.13356 0.151146,-0.321121 0.151146,-0.562698m0.335068,0.790298c-0.000008,0.347229 -0.077095,0.605179 -0.23127,0.773941c-0.15419,0.169968 -0.390305,0.254929 -0.708374,0.254929c-0.11776,0 -0.228844,-0.009079 -0.333244,-0.027298c-0.104408,-0.016998 -0.205757,-0.043701 -0.304108,-0.080124l0,-0.325958c0.098351,0.053421 0.195457,0.09285 0.291359,0.118362c0.095909,0.025497 0.193626,0.038239 0.293182,0.038239c0.219734,0 0.384239,-0.057663 0.493484,-0.172989c0.109261,-0.11412 0.163902,-0.287109 0.163902,-0.518982l0,-0.165741c-0.069199,0.120209 -0.157822,0.210052 -0.265869,0.269531c-0.108047,0.059479 -0.237343,0.089233 -0.387871,0.089233c-0.250092,0 -0.451622,-0.095306 -0.604576,-0.285904c-0.152969,-0.190598 -0.229446,-0.44313 -0.229446,-0.757538c0,-0.315643 0.076477,-0.568771 0.229446,-0.759354c0.152954,-0.190598 0.354485,-0.285919 0.604576,-0.285919c0.150528,0 0.279823,0.029755 0.387871,0.089233c0.108047,0.059509 0.196671,0.149338 0.265869,0.269531l0,-0.309601l0.335068,0l0,1.786407m1.871994,-1.47319c-0.037643,-0.021851 -0.078918,-0.037628 -0.123833,-0.047348c-0.043709,-0.01091 -0.092255,-0.016373 -0.145691,-0.016373c-0.189377,0 -0.33506,0.06192 -0.437035,0.18573c-0.100761,0.12262 -0.151146,0.299271 -0.151146,0.529922l0,1.074402l-0.336876,0l0,-2.039551l0.336876,0l0,0.316879c0.070427,-0.12384 0.162086,-0.2155 0.274986,-0.274979c0.112885,-0.060715 0.250076,-0.091064 0.411537,-0.091064c0.023064,0 0.048561,0.001831 0.076477,0.005463c0.027931,0.002441 0.058884,0.006699 0.09288,0.012772l0.001823,0.344147m1.281982,0.701111c-0.270721,0 -0.458282,0.03093 -0.562691,0.09285c-0.104401,0.06192 -0.156601,0.167542 -0.156601,0.316849c0,0.119003 0.038841,0.213684 0.116539,0.284103c0.078911,0.069199 0.185753,0.10379 0.320503,0.10379c0.185738,0 0.33445,-0.065552 0.446144,-0.196671c0.1129,-0.132339 0.16935,-0.307739 0.16935,-0.52626l0,-0.074661l-0.333244,0m0.66832,-0.138397l0,1.16362l-0.335075,0l0,-0.30957c-0.076477,0.12381 -0.171776,0.215469 -0.285896,0.274948c-0.114113,0.058289 -0.253731,0.087402 -0.418831,0.087402c-0.208809,0 -0.37513,-0.058243 -0.498947,-0.174805c-0.12262,-0.117737 -0.183929,-0.274979 -0.183929,-0.471649c0,-0.229446 0.076485,-0.40242 0.229446,-0.518967c0.154167,-0.116562 0.383621,-0.17482 0.688339,-0.17482l0.469818,0l0,-0.032791c0,-0.15416 -0.050987,-0.273148 -0.152954,-0.356918c-0.100777,-0.084961 -0.242813,-0.127441 -0.426125,-0.127472c-0.116547,0.000031 -0.230049,0.013962 -0.34053,0.041901c-0.110481,0.027908 -0.216698,0.069809 -0.318672,0.125641l0,-0.30957c0.122612,-0.047333 0.241585,-0.08255 0.356911,-0.105621c0.115334,-0.024261 0.227631,-0.036423 0.336891,-0.036423c0.294998,0 0.515343,0.076492 0.661018,0.229462c0.145691,0.152954 0.218536,0.384842 0.218536,0.695633m1.016121,0.857666l0,1.08168l-0.336891,0l0,-2.815277l0.336891,0l0,0.309601c0.070404,-0.121414 0.159027,-0.211243 0.265869,-0.269531c0.10804,-0.059479 0.236725,-0.089233 0.386047,-0.089233c0.24765,0 0.44857,0.098343 0.602753,0.295013c0.155388,0.196671 0.233086,0.455261 0.233086,0.775742c0,0.320496 -0.077698,0.579086 -0.233086,0.775757c-0.154182,0.196671 -0.355103,0.294998 -0.602753,0.294998c-0.149323,0 -0.278008,-0.029129 -0.386047,-0.087418c-0.106842,-0.059479 -0.195465,-0.149933 -0.265869,-0.271332m1.139946,-0.71199c0,-0.24646 -0.051003,-0.439468 -0.152969,-0.579086c-0.100761,-0.140823 -0.239761,-0.211243 -0.417007,-0.211243c-0.177246,0 -0.316856,0.070419 -0.418831,0.211243c-0.100761,0.139618 -0.151138,0.332626 -0.151138,0.579086c0,0.246414 0.050377,0.440063 0.151138,0.580902c0.101974,0.139587 0.241585,0.209412 0.418831,0.209412c0.177246,0 0.316246,-0.069824 0.417007,-0.209412c0.101967,-0.140839 0.152969,-0.334488 0.152969,-0.580902m2.598579,-0.213058l0,1.231003l-0.335068,0l0,-1.220093c0,-0.193008 -0.037628,-0.337479 -0.1129,-0.43338c-0.075272,-0.095932 -0.188179,-0.14386 -0.338722,-0.14386c-0.180878,0 -0.32354,0.057648 -0.42794,0.172989c-0.104385,0.115341 -0.156586,0.272552 -0.156586,0.471649l0,1.152695l-0.336891,0l0,-2.833481l0.336891,0l0,1.110809c0.080116,-0.12262 0.17421,-0.214279 0.282249,-0.274979c0.109261,-0.060715 0.234909,-0.091064 0.376945,-0.091064c0.234291,0 0.411552,0.072845 0.531731,0.218521c0.120193,0.14447 0.180283,0.357513 0.18029,0.639191m0.671951,-0.808548l0.33506,0l0,2.039551l-0.33506,0l0,-2.039551m0,-0.79393l0.33506,0l0,0.424271l-0.33506,0l0,-0.424271m2.50206,0.872238l0,0.313232c-0.094711,-0.0522 -0.189987,-0.09108 -0.285912,-0.116562c-0.094681,-0.026718 -0.19059,-0.040039 -0.28772,-0.04007c-0.2173,0.000031 -0.38604,0.069199 -0.506226,0.207611c-0.120193,0.137161 -0.180283,0.3302 -0.180275,0.579071c-0.000008,0.248871 0.060081,0.442505 0.180275,0.580902c0.120186,0.137177 0.288925,0.20578 0.506226,0.205765c0.09713,0.000015 0.193031,-0.012741 0.28772,-0.038239c0.095924,-0.026703 0.1912,-0.066162 0.285912,-0.118362l0,0.30957c-0.093491,0.043701 -0.190598,0.076492 -0.291359,0.098343c-0.099548,0.021851 -0.20578,0.032761 -0.31868,0.032761c-0.307152,0 -0.551163,-0.096481 -0.73204,-0.28952c-0.180893,-0.193039 -0.271332,-0.45343 -0.271332,-0.781219c0,-0.332642 0.091049,-0.594254 0.27314,-0.784851c0.183334,-0.190598 0.434013,-0.285904 0.752083,-0.285904c0.103188,0 0.203957,0.010925 0.302277,0.032776c0.098351,0.020645 0.193649,0.0522 0.285912,0.094696m1.886559,-0.018188l0,0.316849c-0.094688,-0.048569 -0.193016,-0.085007 -0.294998,-0.109268c-0.101982,-0.024292 -0.207611,-0.036438 -0.316872,-0.036438c-0.166306,0 -0.291336,0.025528 -0.375107,0.076508c-0.082573,0.05098 -0.123833,0.127457 -0.123833,0.229431c0,0.077698 0.029739,0.139008 0.089233,0.183929c0.059486,0.043701 0.179047,0.085571 0.358727,0.125641l0.114731,0.025497c0.237953,0.050995 0.406693,0.123215 0.506241,0.216705c0.100761,0.092255 0.151138,0.221542 0.151138,0.387863c0,0.189392 -0.075256,0.339325 -0.2258,0.449783c-0.14933,0.110474 -0.355087,0.16571 -0.617317,0.16571c-0.109283,0 -0.223381,-0.01091 -0.342354,-0.032776c-0.11776,-0.02063 -0.242195,-0.0522 -0.373306,-0.094681l0,-0.345993c0.12384,0.064331 0.245827,0.1129 0.36602,0.145676c0.120186,0.03157 0.239159,0.047348 0.356918,0.047348c0.157822,0 0.279221,-0.026703 0.364212,-0.080124c0.084969,-0.054626 0.127457,-0.131119 0.127457,-0.229446c0,-0.091034 -0.03096,-0.160858 -0.09288,-0.209412c-0.060677,-0.048569 -0.194839,-0.095306 -0.402428,-0.140228l-0.116539,-0.027313c-0.207603,-0.043701 -0.357544,-0.110474 -0.449814,-0.200302c-0.092247,-0.091049 -0.13839,-0.215485 -0.13839,-0.373306c0,-0.191803 0.067993,-0.33992 0.203964,-0.444336c0.135956,-0.104401 0.328995,-0.156601 0.579079,-0.156601c0.12384,0 0.240356,0.009094 0.349617,0.027313c0.109283,0.018204 0.21003,0.045532 0.302299,0.081955m3.296021,0.961487c0,-0.246445 -0.05098,-0.439468 -0.152946,-0.579071c-0.100784,-0.140839 -0.239784,-0.211258 -0.417023,-0.211258c-0.177261,0 -0.316872,0.070419 -0.418831,0.211258c-0.100761,0.139603 -0.151146,0.332626 -0.151146,0.579071c0,0.246429 0.050385,0.440079 0.151146,0.580902c0.101959,0.139603 0.24157,0.209427 0.418831,0.209427c0.177238,0 0.316238,-0.069824 0.417023,-0.209427c0.101967,-0.140823 0.152946,-0.334473 0.152946,-0.580902m-1.139946,-0.71199c0.070419,-0.121429 0.159035,-0.211258 0.265869,-0.269531c0.108047,-0.059479 0.23674,-0.089233 0.386047,-0.089233c0.247673,0 0.44857,0.098328 0.60276,0.294998c0.155388,0.196686 0.233093,0.455276 0.233093,0.775757c0,0.320496 -0.077705,0.579071 -0.233093,0.775742c-0.154182,0.196671 -0.355087,0.294998 -0.60276,0.294998c-0.149307,0 -0.278,-0.029129 -0.386047,-0.087402c-0.106834,-0.059479 -0.19545,-0.149933 -0.265869,-0.271332l0,0.305954l-0.336884,0l0,-2.833481l0.336884,0l0,1.103531m2.891769,1.919312c-0.094704,0.242828 -0.186974,0.40123 -0.276802,0.475281c-0.089851,0.074066 -0.210022,0.111084 -0.360558,0.111084l-0.267693,0l0,-0.280426l0.196671,0c0.09227,0 0.163902,-0.021851 0.214882,-0.065552c0.050987,-0.043716 0.107437,-0.146896 0.169357,-0.30957l0.060089,-0.152969l-0.824921,-2.00676l0.355103,0l0.637352,1.59523l0.63736,-1.59523l0.355087,0l-0.895927,2.228912m2.560326,-2.908142l0.367844,0l0,2.40921l1.323875,0l0,0.30957l-1.691719,0l0,-2.718781m1.961235,1.913879l0,-1.23465l0.33506,0l0,1.221893c0,0.193039 0.037636,0.338104 0.112907,0.435226c0.075249,0.095901 0.188171,0.14386 0.338699,0.14386c0.180893,0 0.323532,-0.057663 0.42794,-0.172989c0.105621,-0.115326 0.158432,-0.272552 0.158432,-0.471649l0,-1.156342l0.33506,0l0,2.039551l-0.33506,0l0,-0.313232c-0.081352,0.123825 -0.176033,0.216095 -0.284081,0.276794c-0.106842,0.059479 -0.23127,0.089218 -0.373322,0.089218c-0.234291,0 -0.41214,-0.07283 -0.533539,-0.218506c-0.121399,-0.145691 -0.182098,-0.358749 -0.182098,-0.639175m3.989815,-0.843109c0.083771,-0.150558 0.183922,-0.261627 0.300461,-0.333267c0.116554,-0.071625 0.253731,-0.107437 0.41156,-0.107437c0.21244,0 0.37632,0.074661 0.491661,0.223984c0.115334,0.148102 0.172989,0.359344 0.172989,0.633713l0,1.231018l-0.336868,0l0,-1.220093c-0.000008,-0.195465 -0.034622,-0.34053 -0.103798,-0.435226c-0.069214,-0.094681 -0.17482,-0.142029 -0.316864,-0.142029c-0.173599,0 -0.310776,0.057663 -0.411537,0.172989c-0.100769,0.115341 -0.151161,0.272552 -0.151161,0.471649l0,1.15271l-0.336868,0l0,-1.220093c-0.000023,-0.196671 -0.034599,-0.341736 -0.103813,-0.435226c-0.069199,-0.094681 -0.176018,-0.142029 -0.320488,-0.142029c-0.171181,0 -0.307152,0.058258 -0.407898,0.17482c-0.100784,0.115326 -0.151161,0.271927 -0.151161,0.469818l0,1.15271l-0.336868,0l0,-2.039551l0.336868,0l0,0.316864c0.076477,-0.125046 0.168137,-0.2173 0.274979,-0.276794c0.106842,-0.059479 0.233688,-0.089233 0.3806,-0.089233c0.148102,0 0.27375,0.037643 0.37693,0.1129c0.104408,0.075272 0.181511,0.184525 0.23127,0.327805m3.791351,0.544479l0,0.163864l-1.540581,0c0.014572,0.230667 0.083771,0.406708 0.207588,0.528107c0.125053,0.120178 0.29866,0.180283 0.520821,0.180267c0.12867,0.000015 0.25312,-0.015778 0.373299,-0.047318c0.121414,-0.03157 0.241592,-0.078934 0.360573,-0.142059l0,0.316879c-0.120201,0.05098 -0.243408,0.089813 -0.369682,0.116516c-0.126259,0.026718 -0.254318,0.040054 -0.384216,0.040054c-0.325371,0 -0.583344,-0.094681 -0.773941,-0.284073c-0.189369,-0.189377 -0.284081,-0.445526 -0.284081,-0.768463c0,-0.333847 0.089851,-0.598495 0.269508,-0.793961c0.180893,-0.196671 0.424301,-0.294998 0.730232,-0.294998c0.274361,0 0.491058,0.088623 0.650101,0.265869c0.16024,0.176025 0.240379,0.415787 0.240379,0.719299m-0.335083,-0.098343c-0.002419,-0.183319 -0.054008,-0.32959 -0.154778,-0.438858c-0.099541,-0.109253 -0.23188,-0.163879 -0.39698,-0.163895c-0.186951,0.000015 -0.336891,0.052826 -0.449791,0.158432c-0.111679,0.105621 -0.176018,0.254333 -0.193031,0.446152l1.19458,-0.001831m2.580383,-0.029129l0,1.231003l-0.335083,0l0,-1.220078c0,-0.193024 -0.037628,-0.337494 -0.1129,-0.433395c-0.075256,-0.095917 -0.188156,-0.14386 -0.338699,-0.14386c-0.180878,0 -0.32354,0.057663 -0.42794,0.172989c-0.104408,0.115341 -0.156609,0.272552 -0.156609,0.471649l0,1.152695l-0.336868,0l0,-2.039536l0.336868,0l0,0.316864c0.080139,-0.12262 0.17421,-0.214279 0.282272,-0.274979c0.109245,-0.060699 0.234909,-0.091049 0.376938,-0.091049c0.234299,0 0.411537,0.072845 0.531731,0.218521c0.120178,0.14447 0.18029,0.357513 0.18029,0.639175m2.241661,-1.185471l0,2.114182l0.444328,0c0.375122,0 0.64949,-0.084976 0.82309,-0.254944c0.17482,-0.169968 0.26223,-0.438248 0.26223,-0.804886c0,-0.364197 -0.08741,-0.630661 -0.26223,-0.799423c-0.173599,-0.169952 -0.447968,-0.254929 -0.82309,-0.254929l-0.444328,0m-0.367851,-0.302292l0.75573,0c0.526871,0 0.913528,0.109863 1.159981,0.329605c0.246437,0.218506 0.369659,0.560867 0.369659,1.027039c0,0.468613 -0.12384,0.81279 -0.37149,1.032516c-0.24765,0.219742 -0.63372,0.329605 -1.15815,0.329605l-0.755722,0l0,-2.718765m4.599861,1.615234l0,0.163879l-1.540581,0c0.01458,0.230667 0.083771,0.406708 0.207603,0.528107c0.125046,0.120178 0.298637,0.180283 0.520798,0.180267c0.1287,0.000015 0.25312,-0.015778 0.373322,-0.047333c0.121399,-0.03157 0.241577,-0.078918 0.360558,-0.142044l0,0.316864c-0.120201,0.05098 -0.243408,0.089828 -0.369667,0.116531c-0.126251,0.026718 -0.254333,0.040054 -0.384232,0.040054c-0.325363,0 -0.583328,-0.094681 -0.773941,-0.284073c-0.189369,-0.189377 -0.284058,-0.445526 -0.284058,-0.768463c0,-0.333847 0.089828,-0.598495 0.269508,-0.793961c0.180878,-0.196671 0.424278,-0.294998 0.730209,-0.294998c0.274368,0 0.491058,0.088623 0.650108,0.265869c0.16024,0.176025 0.240372,0.415787 0.240372,0.719299m-0.33506,-0.098343c-0.002441,-0.183319 -0.054031,-0.32959 -0.1548,-0.438858c-0.099541,-0.109253 -0.23188,-0.163879 -0.39698,-0.163895c-0.186951,0.000015 -0.336891,0.052826 -0.449791,0.158432c-0.111679,0.105621 -0.176018,0.254333 -0.193008,0.446152l1.19458,-0.001831m2.185188,-0.777557l0,0.316849c-0.094681,-0.048569 -0.193008,-0.084991 -0.294991,-0.109268c-0.10199,-0.024277 -0.207588,-0.036423 -0.316849,-0.036423c-0.166321,0 -0.291367,0.025513 -0.37513,0.076492c-0.08255,0.05098 -0.12384,0.127472 -0.12384,0.229446c0,0.077698 0.029739,0.139008 0.089241,0.183914c0.059479,0.043716 0.179062,0.085587 0.358742,0.125656l0.114708,0.025497c0.237953,0.050995 0.4067,0.123215 0.506241,0.216705c0.100769,0.092255 0.151138,0.221542 0.151138,0.387863c0,0.189392 -0.075256,0.339325 -0.2258,0.449783c-0.149307,0.110474 -0.355087,0.165695 -0.61731,0.165695c-0.109268,0 -0.223389,-0.01091 -0.342361,-0.032761c-0.11776,-0.02063 -0.242188,-0.0522 -0.373299,-0.094681l0,-0.346008c0.123833,0.064331 0.245842,0.1129 0.36602,0.145691c0.120178,0.03157 0.239159,0.047348 0.356918,0.047348c0.157822,0 0.279221,-0.026718 0.364204,-0.080139c0.084976,-0.054611 0.127457,-0.131119 0.127457,-0.229431c0,-0.091049 -0.030937,-0.160858 -0.092857,-0.209412c-0.060699,-0.048569 -0.194862,-0.095306 -0.402443,-0.140228l-0.116539,-0.027328c-0.207611,-0.043686 -0.357529,-0.110458 -0.449791,-0.200287c-0.09227,-0.091049 -0.138397,-0.215485 -0.138397,-0.373306c0,-0.191818 0.067978,-0.33992 0.203949,-0.444336c0.135971,-0.104401 0.328987,-0.156601 0.579079,-0.156601c0.123833,0 0.240379,0.009094 0.34964,0.027313c0.109261,0.018204 0.210022,0.045517 0.302269,0.081955m0.644653,-0.060104l0.335068,0l0,2.039536l-0.335068,0l0,-2.039536m0,-0.793945l0.335068,0l0,0.424286l-0.335068,0l0,-0.424286m2.376419,1.790039c-0.000008,-0.242798 -0.050392,-0.430969 -0.151161,-0.564514c-0.099541,-0.133545 -0.239761,-0.200317 -0.420639,-0.200317c-0.179672,0 -0.319901,0.066772 -0.420662,0.200317c-0.099541,0.133545 -0.14933,0.321716 -0.14933,0.564514c0,0.241562 0.049789,0.429153 0.14933,0.562698c0.100761,0.13353 0.24099,0.200302 0.420662,0.200302c0.180878,0 0.321098,-0.066772 0.420639,-0.200302c0.100769,-0.133545 0.151154,-0.321136 0.151161,-0.562698m0.33506,0.790314c0,0.347214 -0.077103,0.605179 -0.23127,0.773926c-0.154182,0.169968 -0.390312,0.254944 -0.708382,0.254944c-0.11776,0 -0.228828,-0.009094 -0.333229,-0.027313c-0.104408,-0.016998 -0.20578,-0.043701 -0.304108,-0.080124l0,-0.325958c0.098328,0.053421 0.19545,0.092865 0.291359,0.118362c0.095909,0.025497 0.193619,0.038239 0.293167,0.038239c0.219749,0 0.384239,-0.057663 0.4935,-0.172989c0.109261,-0.11412 0.163895,-0.287109 0.163902,-0.518982l0,-0.165726c-0.069199,0.120193 -0.157829,0.210037 -0.265869,0.269516c-0.108063,0.059479 -0.237343,0.089233 -0.387894,0.089233c-0.250069,0 -0.451599,-0.095306 -0.604568,-0.285904c-0.152962,-0.190598 -0.229439,-0.443115 -0.229439,-0.757538c0,-0.315643 0.076477,-0.568756 0.229439,-0.759354c0.152969,-0.190598 0.3545,-0.285904 0.604568,-0.285904c0.150551,0 0.279831,0.029739 0.387894,0.089233c0.10804,0.059494 0.196671,0.149323 0.265869,0.269516l0,-0.309586l0.33506,0l0,1.786407m2.385521,-0.97789l0,1.231018l-0.33506,0l0,-1.220078c-0.000023,-0.193024 -0.037643,-0.337494 -0.112923,-0.433411c-0.075256,-0.095901 -0.188156,-0.14386 -0.338699,-0.14386c-0.180878,0 -0.32354,0.057678 -0.42794,0.172989c-0.104401,0.115341 -0.156601,0.272568 -0.156601,0.471664l0,1.152695l-0.336876,0l0,-2.039536l0.336876,0l0,0.316864c0.080132,-0.12262 0.17421,-0.214279 0.282265,-0.274979c0.109245,-0.060699 0.234909,-0.091049 0.376945,-0.091049c0.234291,0 0.41153,0.07283 0.531731,0.218521c0.120193,0.14447 0.180283,0.357513 0.180283,0.63916m3.503624,-1.398529l0,0.358749c-0.139618,-0.066772 -0.271332,-0.116562 -0.395172,-0.149323c-0.123825,-0.032776 -0.243408,-0.049179 -0.358734,-0.049179c-0.200317,0 -0.355087,0.038864 -0.464355,0.116531c-0.108047,0.077713 -0.162064,0.188171 -0.162064,0.331421c0,0.120209 0.035812,0.211258 0.107437,0.273178c0.072845,0.060699 0.210022,0.109879 0.411545,0.147491l0.222168,0.045532c0.274353,0.0522 0.476486,0.14447 0.606384,0.276779c0.131119,0.131119 0.196671,0.307159 0.196671,0.528107c0,0.263443 -0.088623,0.463135 -0.265869,0.599091c-0.176025,0.135971 -0.434601,0.203949 -0.775742,0.203949c-0.128693,0 -0.265869,-0.014557 -0.411545,-0.043671c-0.14447,-0.029144 -0.294403,-0.07225 -0.449783,-0.129318l0,-0.378769c0.149307,0.083771 0.295609,0.146912 0.438858,0.189407c0.14325,0.04248 0.284073,0.063721 0.42247,0.063721c0.210022,0 0.372101,-0.041275 0.486206,-0.123825c0.11412,-0.08255 0.171173,-0.200302 0.171173,-0.353271c0,-0.133545 -0.041275,-0.237961 -0.123825,-0.313232c-0.081345,-0.075256 -0.215485,-0.131699 -0.402435,-0.169327l-0.223999,-0.043716c-0.274353,-0.054626 -0.472839,-0.140213 -0.595459,-0.25676c-0.12262,-0.116547 -0.183929,-0.278625 -0.183929,-0.486206c0,-0.240372 0.084381,-0.429749 0.253128,-0.568161c0.169952,-0.138382 0.403656,-0.207611 0.70108,-0.207611c0.127472,0 0.25737,0.011551 0.389694,0.034622c0.132324,0.023071 0.267685,0.057648 0.406097,0.10379m1.054352,0.01091l0,0.579102l0.69017,0l0,0.260406l-0.69017,0l0,1.107162c0,0.166336 0.022461,0.273148 0.067383,0.320511c0.046127,0.047318 0.138992,0.070999 0.27861,0.070999l0.344177,0l0,0.280457l-0.344177,0c-0.258575,0 -0.437042,-0.047958 -0.53537,-0.143875c-0.098343,-0.097122 -0.147507,-0.273163 -0.147507,-0.528091l0,-1.107162l-0.245834,0l0,-0.260406l0.245834,0l0,-0.579102l0.336884,0m1.098068,1.813751l0,-1.23465l0.335068,0l0,1.221878c0,0.193039 0.037628,0.33812 0.1129,0.435242c0.075272,0.095886 0.188171,0.14386 0.338715,0.14386c0.180878,0 0.323532,-0.057663 0.427948,-0.172989c0.105606,-0.115341 0.158417,-0.272552 0.158417,-0.471664l0,-1.156326l0.335068,0l0,2.039536l-0.335068,0l0,-0.313217c-0.081345,0.12381 -0.176041,0.21608 -0.284073,0.276779c-0.106842,0.059479 -0.231277,0.089218 -0.373306,0.089218c-0.234299,0 -0.41217,-0.072815 -0.533569,-0.218506c-0.121399,-0.145691 -0.182098,-0.358734 -0.182098,-0.63916m3.743988,-0.925064l0,-1.103546l0.335083,0l0,2.833496l-0.335083,0l0,-0.305939c-0.070404,0.121399 -0.159637,0.211853 -0.26767,0.271332c-0.106842,0.058258 -0.235519,0.087387 -0.386063,0.087387c-0.246445,0 -0.447357,-0.098328 -0.602753,-0.294998c-0.154175,-0.196671 -0.231262,-0.455231 -0.231262,-0.775742c0,-0.320496 0.077087,-0.579086 0.231262,-0.775757c0.155396,-0.196671 0.356308,-0.294983 0.602753,-0.294983c0.150543,0 0.279221,0.029724 0.386063,0.089233c0.108032,0.058258 0.197266,0.148087 0.26767,0.269501m-1.141769,0.712006c0,0.246445 0.050385,0.440094 0.151154,0.580902c0.101974,0.139618 0.241577,0.209412 0.418839,0.209412c0.177231,0 0.316849,-0.069794 0.418823,-0.209412c0.101974,-0.140808 0.152954,-0.334457 0.152954,-0.580902c0,-0.246429 -0.05098,-0.439468 -0.152954,-0.579086c-0.101974,-0.140823 -0.241592,-0.211243 -0.418823,-0.211243c-0.177261,0 -0.316864,0.070419 -0.418839,0.211243c-0.100769,0.139618 -0.151154,0.332657 -0.151154,0.579086m2.167007,-1.021576l0.335068,0l0,2.039536l-0.335068,0l0,-2.039536m0,-0.793961l0.335068,0l0,0.424301l-0.335068,0l0,-0.424301m1.824646,1.02887c-0.179672,0 -0.321701,0.070419 -0.426102,0.211227c-0.104416,0.139603 -0.156616,0.331421 -0.156616,0.575439c0,0.244034 0.05159,0.436432 0.154785,0.577271c0.104401,0.139603 0.24704,0.209412 0.427933,0.209412c0.178467,0 0.319885,-0.070419 0.424301,-0.211227c0.104401,-0.140854 0.156601,-0.332642 0.156601,-0.575455c0,-0.241577 -0.0522,-0.4328 -0.156601,-0.573608c-0.104416,-0.142029 -0.245834,-0.213058 -0.424301,-0.213058m0,-0.284073c0.291367,0 0.520203,0.094681 0.686523,0.284073c0.166321,0.189377 0.249481,0.451599 0.249481,0.786667c0,0.333862 -0.08316,0.596085 -0.249481,0.786682c-0.166321,0.189392 -0.395157,0.284058 -0.686523,0.284058c-0.292572,0 -0.522018,-0.094666 -0.688339,-0.284058c-0.1651,-0.190598 -0.247665,-0.45282 -0.247665,-0.786682c0,-0.335068 0.082565,-0.59729 0.247665,-0.786667c0.166321,-0.189392 0.395767,-0.284073 0.688339,-0.284073" id="text1464" stroke-width="1px" fill="#000000"/>
 </g>
</svg>