<?xml version="1.0" encoding="UTF-8"?>
<svg width="640" height="480" xmlns="http://www.w3.org/2000/svg">
 <title>Brain Blank</title>
 <metadata id="metadata7">image/svg+xml</metadata>
 <g>
  <title>Layer 1</title>
  <g id="layer1">
   <g id="g3170">
    <path fill="#ffffff" fill-rule="evenodd" stroke="#6a3900" stroke-width="3" stroke-miterlimit="4" d="m93.34108,430.605286c11.869461,-41.157562 37.533188,-76.96637 66.688431,-133.579712c9.526337,-18.498077 15.488739,-49.697144 14.189011,-70.596573c0,0 -12.458038,-10.485886 -16.317368,-15.572769c-7.167206,-9.446915 -15.558838,-22.589233 -19.155182,-33.567963c-4.106796,-12.536987 -6.064468,-30.485809 -4.966141,-43.603729c1.025787,-12.251945 4.5737,-29.087944 11.351196,-39.451019c7.388077,-11.29673 22.618469,-22.808891 34.763123,-29.069168c12.279465,-6.329784 30.847794,-10.731243 44.695419,-11.766102c13.451752,-1.005283 31.634613,1.547146 44.695404,4.844856c14.962158,3.777779 34.909454,11.198101 46.823792,20.763699c28.742859,24.501976 28.440765,56.448242 30.506409,90.668106c2.053802,8.12677 9.118561,17.472305 14.188995,24.224319c2.225403,2.963287 6.832886,5.710281 8.513428,8.997604c1.062042,2.077423 2.329529,5.468597 1.418915,7.613327c-1.287811,3.033112 -6.289001,4.621033 -9.222839,6.229111c-1.827515,1.001694 -5.359131,0.985168 -6.385071,2.768509c-2.416168,4.199829 4.004303,11.011841 1.064178,14.88063c-1.542084,2.02916 -7.44931,2.422424 -7.44931,2.422424c0,0 7.303894,9.033829 4.256775,8.997589c-1.69986,-0.020218 -6.857056,8.384659 -5.675629,11.073959c0,0 3.493134,8.087158 3.547241,11.766144c0.060089,4.07901 -0.663086,10.196594 -3.547241,13.150299c-2.924988,2.995575 -9.385773,3.073334 -13.479584,4.152771c-6.529663,1.721802 -17.061462,0.710693 -24.121338,2.422424c-4.679413,1.134552 -10.821564,3.371277 -14.898438,5.883057c-2.929474,1.804779 -7.08728,4.532867 -8.513428,7.613342c-4.468811,9.652649 0.580933,24.78183 -0.709473,35.298279c-0.699646,5.702271 -4.975952,12.987396 -4.256683,18.687317c0.872253,6.91214 6.52951,15.070923 10.641754,20.763702c4.075562,5.641907 11.971954,11.164063 16.317352,16.610962c6.166168,7.729126 11.966278,19.669922 17.736328,27.684937c2.177887,3.025299 7.803925,9.689667 7.803925,9.689667l-240.503952,0z" id="path2396"/>
    <path fill="#ffffff" fill-rule="evenodd" stroke="#454a4b" stroke-width="3" stroke-miterlimit="4" d="m219.978119,212.932587c0,0 -5.180817,3.79924 -7.803925,4.498825c-2.360992,0.629669 -5.880463,0.872787 -8.158691,0c-1.892487,-0.724991 -4.966187,-4.498825 -4.966187,-4.498825c-20.435272,4.912155 -30.327133,-12.009109 -31.570557,-22.147903c0,0 -7.152924,-1.754181 -10.287048,-2.07637c-8.864655,-0.911285 -13.423187,-22.915054 -13.479599,-24.224304c-1.672043,-38.814232 3.835129,-57.977272 30.86113,-83.400841c11.760895,-11.063492 29.476074,-16.803902 56.046631,-17.649128c16.759552,-0.533123 30.792206,0.188633 42.212341,5.883045c0,0 23.391815,9.53109 31.925354,15.918823c8.189575,6.130264 17.035706,16.152412 23.057159,24.91642c8.144897,17.339111 4.936584,43.756622 -14.189026,46.718338l-22.347717,3.460602c-6.338776,1.055893 8.454102,12.638428 -8.868134,22.840057c-14.356262,14.123627 -31.252869,1.489349 -32.634766,2.768478c0,0 -6.154358,8.477432 -8.158691,12.458206c-1.944153,3.861221 -3.875977,9.328094 -4.966156,13.496414c-0.852142,3.258133 1.219452,9.406586 -1.773621,11.073959c-7.248016,4.037766 -14.898499,1.3741 -14.898499,-0.346069l0,-9.689728z" id="path3168"/>
   </g>
  </g>
 </g>
</svg>