<?xml version="1.0" encoding="UTF-8" standalone="no"?>
<!-- Created with Inkscape (http://www.inkscape.org/) -->
<svg xmlns:dc="http://purl.org/dc/elements/1.1/" xmlns:cc="http://creativecommons.org/ns#" xmlns:rdf="http://www.w3.org/1999/02/22-rdf-syntax-ns#" xmlns:svg="http://www.w3.org/2000/svg" xmlns="http://www.w3.org/2000/svg" xmlns:sodipodi="http://sodipodi.sourceforge.net/DTD/sodipodi-0.dtd" xmlns:inkscape="http://www.inkscape.org/namespaces/inkscape" width="110.4171" height="101.63276" id="svg9072" version="1.1" inkscape:version="0.47 r22583" sodipodi:docname="New document 6">
  <defs id="defs9074">
    <inkscape:perspective sodipodi:type="inkscape:persp3d" inkscape:vp_x="0 : 526.18109 : 1" inkscape:vp_y="0 : 1000 : 0" inkscape:vp_z="744.09448 : 526.18109 : 1" inkscape:persp3d-origin="372.04724 : 350.78739 : 1" id="perspective9080"/>
    <inkscape:perspective id="perspective9032" inkscape:persp3d-origin="0.5 : 0.33333333 : 1" inkscape:vp_z="1 : 0.5 : 1" inkscape:vp_y="0 : 1000 : 0" inkscape:vp_x="0 : 0.5 : 1" sodipodi:type="inkscape:persp3d"/>
  </defs>
  <sodipodi:namedview id="base" pagecolor="#ffffff" bordercolor="#666666" borderopacity="1.0" inkscape:pageopacity="0.0" inkscape:pageshadow="2" inkscape:zoom="0.35" inkscape:cx="55.2085" inkscape:cy="50.816384" inkscape:document-units="px" inkscape:current-layer="layer1" showgrid="false" inkscape:window-width="605" inkscape:window-height="466" inkscape:window-x="515" inkscape:window-y="374" inkscape:window-maximized="0"/>
  <metadata id="metadata9077">
    <rdf:RDF>
      <cc:Work rdf:about="">
        <dc:format>image/svg+xml</dc:format>
        <dc:type rdf:resource="http://purl.org/dc/dcmitype/StillImage"/>
        <dc:title/>
      </cc:Work>
    </rdf:RDF>
  </metadata>
  <g inkscape:label="Layer 1" inkscape:groupmode="layer" id="layer1" transform="translate(-319.7915,-481.54581)">
    <g id="g13238" transform="translate(-7058.9952,-147.30211)">
      <path id="path13240" d="m 7415.9386,661.85311 c 1.1487,34.6908 21.643,-7.17051 0,0 z" style="color:#000000;fill:#a5bfe6;fill-opacity:1;fill-rule:nonzero;stroke:#3771c8;stroke-width:2;stroke-linecap:butt;stroke-linejoin:miter;stroke-miterlimit:4;stroke-opacity:1;stroke-dasharray:none;stroke-dashoffset:0;marker:none;visibility:visible;display:inline;overflow:visible;enable-background:accumulate"/>
      <path style="fill:#a5bfe6;fill-opacity:1;stroke:#3771c8;stroke-width:2;stroke-miterlimit:4;stroke-opacity:1;stroke-dasharray:none" d="m 7422.0704,694.84753 c 0.944,9.25494 1.2629,18.86466 -0.394,28.06713 -0.1349,0.74823 -1.7692,0.39124 -1.486,1.59526 0.4796,2.03928 3.0568,2.99211 4.9182,3.24187 3.0769,0.41282 8.8489,1.40147 10.771,-1.90035 3.0719,-5.27721 -0.1806,-27.41977 1.6945,-32.33254" id="path13242" sodipodi:nodetypes="cssssc"/>
      <path sodipodi:nodetypes="cssssc" id="path13244" d="m 7436.4526,695.41443 c 0.033,9.30289 -0.591,18.89763 -3.1413,27.89354 -0.2074,0.73153 -1.7991,0.21606 -1.6351,1.44206 0.2775,2.07644 2.7489,3.27712 4.5768,3.70801 3.0218,0.71222 8.6692,2.26152 10.9054,-0.83615 3.5741,-4.95092 2.5063,-27.30559 4.8535,-32.01108" style="fill:#a5bfe6;fill-opacity:1;stroke:#3771c8;stroke-width:2;stroke-miterlimit:4;stroke-opacity:1;stroke-dasharray:none"/>
      <path id="path13246" d="m 7418.5681,685.59215 c -13.9707,20.07853 26.4447,24.35317 33.5631,10.45538 1.9623,-3.8312 0.5058,-8.90282 0.3155,-12.90022" style="color:#000000;fill:#ffffff;fill-opacity:1;fill-rule:nonzero;stroke:#3771c8;stroke-width:2;stroke-linecap:butt;stroke-linejoin:miter;stroke-miterlimit:4;stroke-opacity:1;stroke-dasharray:none;stroke-dashoffset:0;marker:none;visibility:visible;display:inline;overflow:visible;enable-background:accumulate"/>
      <g transform="translate(120,10)" id="g13248">
        <path style="color:#000000;fill:#a5bfe6;fill-opacity:1;fill-rule:nonzero;stroke:#3771c8;stroke-width:2;stroke-linecap:butt;stroke-linejoin:miter;stroke-miterlimit:4;stroke-opacity:1;stroke-dasharray:none;stroke-dashoffset:0;marker:none;visibility:visible;display:inline;overflow:visible;enable-background:accumulate" d="m 7310.4377,625.13683 c -2.9488,-15.59575 -22.958,8.36011 -6.6452,7.40028 l 1.2023,-0.54182 c 2.494,-3.37615 5.7297,-3.80467 5.4429,-6.85846 z" id="path13250"/>
        <path style="color:#000000;fill:#ffffff;fill-opacity:1;fill-rule:nonzero;stroke:#3771c8;stroke-width:2;stroke-linecap:butt;stroke-linejoin:miter;stroke-miterlimit:4;stroke-opacity:1;stroke-dasharray:none;stroke-dashoffset:0;marker:none;visibility:visible;display:inline;overflow:visible;enable-background:accumulate" d="m 7301.435,627.30768 c -0.338,-2.19929 2.5942,-3.39468 2.9837,-3.66592" id="path13252"/>
      </g>
      <path sodipodi:nodetypes="cssssc" style="fill:#ffffff;stroke:#3771c8;stroke-width:2;stroke-miterlimit:4;stroke-opacity:1;stroke-dasharray:none" d="m 7425.9031,638.48832 c -4.8479,12.50523 -8.7843,8.62282 -7.2352,16.28584 1.1904,5.88791 10.4243,10.30199 15.3817,12.65985 24.7099,11.75262 27.6861,-16.2289 19.3776,-26.98596 -2.6322,-3.40784 -11.315,-5.51691 -15.2583,-6.83155 -6.091,-2.03063 -8.8522,-0.20948 -12.2658,4.87182 z" id="path13254"/>
      <path id="path13256" d="m 7446.338,659.33334 c -3.3679,-0.96144 -4.2125,-4.43693 -3.6427,-7.73409 0.3516,-2.03535 1.337,-4.11891 3.5082,-4.74713 13.2676,-3.83891 4.8669,24.05976 -2.0296,10.29434" style="color:#000000;fill:#a5bfe6;fill-opacity:1;fill-rule:nonzero;stroke:#3771c8;stroke-width:2;stroke-linecap:butt;stroke-linejoin:miter;stroke-miterlimit:4;stroke-opacity:1;stroke-dasharray:none;stroke-dashoffset:0;marker:none;visibility:visible;display:inline;overflow:visible;enable-background:accumulate"/>
      <path sodipodi:nodetypes="csc" id="path13258" d="m 7426.6196,644.26301 c -1.5304,1.58914 -0.734,6.25117 1.9704,7.66823 6.1899,3.2433 8.8014,-15.43933 -1.9704,-7.66823 z" style="color:#000000;fill:#a5bfe6;fill-opacity:1;fill-rule:nonzero;stroke:#3771c8;stroke-width:2;stroke-linecap:butt;stroke-linejoin:miter;stroke-miterlimit:4;stroke-opacity:1;stroke-dasharray:none;stroke-dashoffset:0;marker:none;visibility:visible;display:inline;overflow:visible;enable-background:accumulate"/>
      <path id="path13260" d="m 7434.8258,658.88366 c -2.0196,-5.73561 5.5711,-1.22346 0,0 z" style="color:#000000;fill:#a5bfe6;fill-opacity:1;fill-rule:nonzero;stroke:#3771c8;stroke-width:2;stroke-linecap:butt;stroke-linejoin:miter;stroke-miterlimit:4;stroke-opacity:1;stroke-dasharray:none;stroke-dashoffset:0;marker:none;visibility:visible;display:inline;overflow:visible;enable-background:accumulate"/>
      <path id="path13262" d="m 7441.1875,661.0961 c -0.9735,1.59587 -2.9207,1.5856 -3.9208,1.71251" style="color:#000000;fill:#ffffff;fill-opacity:1;fill-rule:nonzero;stroke:#3771c8;stroke-width:2;stroke-linecap:butt;stroke-linejoin:miter;stroke-miterlimit:4;stroke-opacity:1;stroke-dasharray:none;stroke-dashoffset:0;marker:none;visibility:visible;display:inline;overflow:visible;enable-background:accumulate"/>
      <path id="path13264" d="m 7456.0256,643.70664 c 14.0447,-13.74668 16.1943,24.37067 2.6458,12.58927 -0.811,-0.70513 -2.0674,-9.28773 -2.6458,-12.58927 z" style="color:#000000;fill:#a5bfe6;fill-opacity:1;fill-rule:nonzero;stroke:#3771c8;stroke-width:2;stroke-linecap:butt;stroke-linejoin:miter;stroke-miterlimit:4;stroke-opacity:1;stroke-dasharray:none;stroke-dashoffset:0;marker:none;visibility:visible;display:inline;overflow:visible;enable-background:accumulate"/>
      <path id="path13266" d="m 7399.074,653.69651 c 3.2976,13.12052 -5.0876,24.23727 10.3765,22.69087 2.0943,-0.20944 9.119,0.83623 10.6469,-0.9464 0.5208,-0.6076 -1.134,-5.43285 -1.2393,-6.14028 -0.5626,-3.77737 0.6904,-18.8161 -1.8703,-21.2262 -0.3831,-0.36055 -15.5921,3.99722 -17.9138,5.62201 z" style="color:#000000;fill:#ffffff;fill-opacity:1;fill-rule:nonzero;stroke:#3771c8;stroke-width:2;stroke-linecap:butt;stroke-linejoin:miter;stroke-miterlimit:4;stroke-opacity:1;stroke-dasharray:none;stroke-dashoffset:0;marker:none;visibility:visible;display:inline;overflow:visible;enable-background:accumulate"/>
      <path id="path13268" d="m 7411.8015,664.23272 c 3.942,7.40028 10.0389,20.05869 11.0736,25.17466" style="color:#000000;fill:#ffffff;fill-opacity:1;fill-rule:nonzero;stroke:#3771c8;stroke-width:5;stroke-linecap:round;stroke-linejoin:miter;stroke-miterlimit:4;stroke-opacity:1;stroke-dasharray:none;stroke-dashoffset:0;marker:none;visibility:visible;display:inline;overflow:visible;enable-background:accumulate"/>
      <path sodipodi:nodetypes="ccsc" id="path13270" d="m 7398.4092,674.70866 c 1.4451,-3.35019 3.0176,-9.87637 -0.4844,-6.15155 -9.935,7.92029 1.7387,18.0054 10.6357,10.83844 7.1274,-5.74159 -8.5196,-5.53218 -10.1513,-4.68689 z" style="color:#000000;fill:#a5bfe6;fill-opacity:1;fill-rule:nonzero;stroke:#3771c8;stroke-width:2;stroke-linecap:butt;stroke-linejoin:miter;stroke-miterlimit:4;stroke-opacity:1;stroke-dasharray:none;stroke-dashoffset:0;marker:none;visibility:visible;display:inline;overflow:visible;enable-background:accumulate"/>
      <path sodipodi:nodetypes="cssccccz" d="m 7445.7301,688.63681 c 8.5027,-1.09486 20.1865,-16.71602 8.436,-24.29385 -1.2338,-0.7957 -2.7719,-1.00694 -3.879,0.17266 -2.9002,3.09037 -1.8075,9.73908 -5.7535,12.21734 l -0.464,0.82261 c -2.4752,4.33778 -11.7199,-0.57602 -14.0024,-0.38749 -9.3598,-0.22128 -15.161,4.49305 -9.8193,8.39019 6.5283,1.94069 16.9796,4.17341 25.4822,3.07854 z" style="color:#000000;fill:#a5bfe6;fill-opacity:1;fill-rule:nonzero;stroke:#3771c8;stroke-width:2;stroke-linecap:butt;stroke-linejoin:miter;stroke-miterlimit:4;stroke-opacity:1;stroke-dasharray:none;stroke-dashoffset:0;marker:none;visibility:visible;display:inline;overflow:visible;enable-background:accumulate" id="path13272"/>
      <rect transform="matrix(0.99737671,-0.07238571,0.07238571,0.99737671,0,0)" y="1189.8081" x="7335.3228" height="2.5172837" width="2.5172837" id="rect13274" style="fill:#ffffff;fill-opacity:1;stroke:#3771c8;stroke-width:1;stroke-miterlimit:4;stroke-opacity:1;stroke-dasharray:none"/>
      <rect style="fill:#ffffff;fill-opacity:1;stroke:#3771c8;stroke-width:1;stroke-miterlimit:4;stroke-opacity:1;stroke-dasharray:none" id="rect13276" width="2.5172837" height="2.5172837" x="7334.8638" y="1196.1204" transform="matrix(0.99737671,-0.07238571,0.07238571,0.99737671,0,0)"/>
      <rect transform="matrix(0.99737671,-0.07238571,0.07238571,0.99737671,0,0)" y="1202.4326" x="7334.4048" height="2.5172837" width="2.5172837" id="rect13278" style="fill:#ffffff;fill-opacity:1;stroke:#3771c8;stroke-width:1;stroke-miterlimit:4;stroke-opacity:1;stroke-dasharray:none"/>
      <path id="path13280" d="m 7408.179,655.81437 c 2.4754,0.60884 4.8031,0.42701 7.0585,0.22307" style="color:#000000;fill:#ffffff;fill-opacity:1;fill-rule:nonzero;stroke:#3771c8;stroke-width:2;stroke-linecap:butt;stroke-linejoin:miter;stroke-miterlimit:4;stroke-opacity:1;stroke-dasharray:none;stroke-dashoffset:0;marker:none;visibility:visible;display:inline;overflow:visible;enable-background:accumulate"/>
      <path id="path13282" d="m 7408.4499,662.26737 c 3.0422,0.11582 5.0615,-0.16452 7.7595,0.92413" style="color:#000000;fill:#ffffff;fill-opacity:1;fill-rule:nonzero;stroke:#3771c8;stroke-width:2;stroke-linecap:butt;stroke-linejoin:miter;stroke-miterlimit:4;stroke-opacity:1;stroke-dasharray:none;stroke-dashoffset:0;marker:none;visibility:visible;display:inline;overflow:visible;enable-background:accumulate"/>
      <path id="path13284" d="m 7408.434,668.38576 c 3.0029,0.34505 5.0947,-0.2214 8.4127,0.19121" style="color:#000000;fill:#ffffff;fill-opacity:1;fill-rule:nonzero;stroke:#3771c8;stroke-width:2;stroke-linecap:butt;stroke-linejoin:miter;stroke-miterlimit:4;stroke-opacity:1;stroke-dasharray:none;stroke-dashoffset:0;marker:none;visibility:visible;display:inline;overflow:visible;enable-background:accumulate"/>
      <g transform="translate(120,10)" id="g13286">
        <path style="fill:#3771c8;fill-opacity:1;stroke:#ffffff;stroke-width:1.20000005;stroke-miterlimit:4;stroke-opacity:1;stroke-dasharray:none" d="m 7327.4234,650.60097 c 1.1204,-0.0529 1.8664,-1.03891 2.4171,-2.05833 0.9198,-1.70137 0.9169,-4.13672 0.3839,-5.95856 -2.2041,-7.7924 -11.2291,6.76305 -2.9057,7.99834" id="path13288"/>
        <path style="fill:#ffffff;stroke:none" d="m 7327.7475,643.63525 c 2.1458,1.11503 -1.259,3.04627 -0.7075,0.62607 0.113,-0.4975 0.3015,-0.4663 0.6827,-0.50437" id="path13290"/>
      </g>
      <path id="path13292" d="m 7445.3328,640.95246 c 2.1339,-0.19632 3.0001,1.04539 4.3009,2.30713" style="color:#000000;fill:#ffffff;fill-opacity:1;fill-rule:nonzero;stroke:#3771c8;stroke-width:2;stroke-linecap:butt;stroke-linejoin:miter;stroke-miterlimit:4;stroke-opacity:1;stroke-dasharray:none;stroke-dashoffset:0;marker:none;visibility:visible;display:inline;overflow:visible;enable-background:accumulate"/>
      <path id="path13294" d="m 7432.1736,636.8509 c 2.1777,-1.21431 2.5691,0.29738 3.6031,0.95418" style="color:#000000;fill:#ffffff;fill-opacity:1;fill-rule:nonzero;stroke:#3771c8;stroke-width:2;stroke-linecap:butt;stroke-linejoin:miter;stroke-miterlimit:4;stroke-opacity:1;stroke-dasharray:none;stroke-dashoffset:0;marker:none;visibility:visible;display:inline;overflow:visible;enable-background:accumulate"/>
      <path id="path13296" d="m 7460.4396,643.86875 c 5.1198,2.36724 3.1464,9.06286 2.4923,10.79873" style="color:#000000;fill:none;stroke:#3771c8;stroke-width:2;stroke-linecap:butt;stroke-linejoin:miter;stroke-miterlimit:4;stroke-opacity:1;stroke-dasharray:none;stroke-dashoffset:0;marker:none;visibility:visible;display:inline;overflow:visible;enable-background:accumulate"/>
      <path style="color:#000000;fill:none;stroke:#3771c8;stroke-width:2;stroke-linecap:butt;stroke-linejoin:miter;stroke-miterlimit:4;stroke-opacity:1;stroke-dasharray:none;stroke-dashoffset:0;marker:none;visibility:visible;display:inline;overflow:visible;enable-background:accumulate" d="m 7446.338,659.33334 c -3.3679,-0.96144 -4.2125,-4.43693 -3.6427,-7.73409 0.3516,-2.03535 1.337,-4.11891 3.5082,-4.74713 13.2676,-3.83891 4.8669,24.05976 -2.0296,10.29434" id="path13298"/>
      <path sodipodi:nodetypes="cscc" style="fill:#3771c8;fill-opacity:1;stroke:#ffffff;stroke-width:1.20000005;stroke-miterlimit:4;stroke-opacity:1;stroke-dasharray:none" d="m 7429.7516,652.25851 c 0.7067,0.26434 1.4339,-0.14419 2.0494,-0.62499 1.0276,-0.8023 1.6834,-2.30028 1.8457,-3.56155 -2.3807,-5.99926 -9.8572,0.87028 -5.0474,3.83513" id="path13300"/>
      <path style="fill:#ffffff;stroke:none" d="m 7431.5606,648.04459 c 1.8779,2.28654 -2.9162,2.79366 -1.1065,0.35653 0.3717,-0.50113 0.5693,-0.37487 1.0187,-0.23257" id="path13302"/>
      <path id="path13304" d="m 7450.4352,722.57258 c 13.4656,0.75823 24.9943,-1.72356 37.7686,1.99382" style="fill:none;stroke:#3771c8;stroke-width:2;stroke-miterlimit:4;stroke-opacity:1;stroke-dasharray:none"/>
      <path id="path13306" d="m 7421.201,721.86921 c -13.1421,3.13695 -31.4762,0.24875 -41.4143,2.47055" style="fill:none;stroke:#3771c8;stroke-width:2;stroke-miterlimit:4;stroke-opacity:1;stroke-dasharray:none"/>
      <path style="color:#000000;fill:none;stroke:#3771c8;stroke-width:2;stroke-linecap:butt;stroke-linejoin:miter;stroke-miterlimit:4;stroke-opacity:1;stroke-dasharray:none;stroke-dashoffset:0;marker:none;visibility:visible;display:inline;overflow:visible;enable-background:accumulate" d="m 7426.6196,644.26301 c -1.5304,1.58914 -0.734,6.25117 1.9704,7.66823 6.1899,3.2433 8.8014,-15.43933 -1.9704,-7.66823 z" id="path13308" sodipodi:nodetypes="csc"/>
    </g>
  </g>
</svg>