<?xml version="1.0" encoding="UTF-8"?>
<svg width="264" height="193" xmlns="http://www.w3.org/2000/svg">
 <title>Figure Thinking</title>
 <metadata id="metadata50">image/svg+xmlLalanne LaurentBulle gauchecalloutscartoon</metadata>

 <g>
  <title>Layer 1</title>
  <path stroke-width="5" stroke="rgb(0,0,0)" fill="none" stroke-linecap="round" stroke-linejoin="round" id="path12" d="m222,166.031006c17.632401,-18.806625 33.102798,-14.27092 16.155045,-36.954712"/>
  <path stroke-width="3" stroke="rgb(0,0,0)" fill="rgb(249,225,225)" id="path14" d="m196,141.031006c-5,1 -9,10 -7,17c1,8 8,14 12,13c5,-1 9,-9 7,-17c-1,-7 -8,-14 -12,-13z"/>
  <path stroke-width="3" stroke="rgb(0,0,0)" fill="rgb(247,223,223)" id="path16" d="m223,142.031006c-5,-1 -12,5 -14,12c-2,7 1,16 5,17c5,1 12,-4 14,-12c3,-7 0,-15 -5,-17z"/>
  <path fill="#1a1a1a" stroke="#000000" id="path18" d="m199.238678,159.411667c-2,0 -2,3 -2,5c1,2 4,4 5,3c2,-1 2,-3 2,-5c-1,-2 -4,-4 -5,-3z"/>
  <path fill="#1a1a1a" stroke="#000000" id="path20" d="m217.587112,158.618103c-1,0 -4,1 -5,3c0,2 0,5 2,6c1,0 4,-1 5,-3c0,-2 0,-5 -2,-6z"/>
  <path fill="none" stroke="#000000" stroke-width="3" stroke-linecap="round" stroke-linejoin="round" id="path22" d="m231.969177,142.699554c-4.429947,-7.373962 -16.438812,-20.365784 -20.696472,-4.65361"/>
  <path fill="none" stroke="#000000" stroke-width="3" stroke-linecap="round" stroke-linejoin="round" id="path24" d="m187.278946,140.539444c6.510559,-6.527847 22.14624,-14.371666 19.943115,1.507446"/>
  <path stroke-width="3" stroke="rgb(0,0,0)" fill="rgb(229,229,229)" id="path26" d="m227,176.031006c-3,0 -5,1 -5,3c0,1 2,2 5,2c2,0 4,-1 4,-2c0,-2 -2,-3 -4,-3z"/>
  <path stroke-width="3" stroke="rgb(0,0,0)" fill="rgb(229,229,229)" id="path28" d="m191,174.031006c-2,0 -4,2 -4,4c0,2 2,3 4,3c2,0 4,-1 4,-3c0,-2 -2,-4 -4,-4z"/>
  <path stroke-width="3" stroke="rgb(0,0,0)" fill="rgb(229,229,229)" id="path30" d="m218,174.031006c-2,0 -4,2 -4,4c0,2 2,4 4,4c2,0 4,-2 4,-4c0,-2 -2,-4 -4,-4z"/>
  <path stroke-width="3" stroke="rgb(0,0,0)" fill="rgb(229,229,229)" id="path32" d="m184,177.031006c-2,0 -4,1 -4,2c0,2 2,3 4,3c2,0 4,-1 4,-3c0,-1 -2,-2 -4,-2z"/>
  <path stroke-width="3" stroke="rgb(0,0,0)" fill="rgb(229,229,229)" id="path34" d="m199,175.031006c-2,0 -3,2 -3,3c0,2 1,3 3,3c1,0 3,-1 3,-3c0,-1 -2,-3 -3,-3z"/>
  <path fill="none" stroke="#000000" stroke-width="3" stroke-linecap="round" stroke-linejoin="round" id="path36" d="m237.422806,127.395042c-12.638321,-8.228073 -10.448029,-4.536629 -14.08345,-3.479813"/>
  <path fill="none" stroke="#000000" stroke-width="3" stroke-linecap="round" stroke-linejoin="round" id="path38" d="m239.471451,128.945816c0,0 0.075485,-10.070404 -3.477753,-11.706833"/>
  <path fill="none" stroke="#000000" stroke-width="2.756565" stroke-linecap="round" stroke-linejoin="round" id="path40" d="m227.690765,128.984055c-1.16777,-1.478905 6.746521,-2.913742 8.825775,-0.280487"/>
  <path fill="none" stroke="#000000" stroke-width="3" stroke-linecap="round" stroke-linejoin="round" id="path42" d="m238.155045,127.489182c-5,-8 -2,-6 -7,-8"/>
  <g id="appdata_0_0_0_0_0"/>
  <path fill="none" fill-rule="nonzero" stroke="#000000" stroke-width="5.422" stroke-linecap="round" stroke-linejoin="round" marker-start="none" marker-mid="none" marker-end="none" stroke-miterlimit="4" stroke-dashoffset="0" id="path2222" d="m216.441605,82.50235c-3.851028,-6.448792 6.143463,-12.249512 13.719391,-9.639427c7.575897,2.610069 11.327164,9.56736 2.297363,17.533348c-3.782867,3.337196 -11.937485,3.079147 -13.520737,12.205872m-2.683807,9.496529c-2.202591,1.694656 -0.104691,-3.741592 0.101761,-0.025558"/>
  <path fill="none" fill-rule="nonzero" stroke="#000000" stroke-width="5.422" stroke-linecap="round" stroke-linejoin="round" marker-start="none" marker-mid="none" marker-end="none" stroke-miterlimit="4" stroke-dashoffset="0" stroke-opacity="0.34903" d="m217.357376,82.960243c-3.851013,-6.448792 6.143478,-12.249527 13.719391,-9.639442c7.575912,2.610077 11.327179,9.567383 2.297379,17.533356c-3.782883,3.337204 -11.9375,3.079147 -13.520752,12.205864" id="path4845"/>
  <path fill="#000000" fill-opacity="0.631579" fill-rule="nonzero" stroke="#000000" stroke-width="5.422" stroke-linecap="round" stroke-linejoin="round" stroke-miterlimit="4" stroke-dashoffset="2.4507" stroke-opacity="0.34903" d="m217.497025,112.411629a1.14472,1.37367 0 1 1 -2.289429,0a1.14472,1.37367 0 1 1 2.289429,0z" id="path7466"/>
 </g>
</svg>